<svg width="66" height="58" viewBox="0 0 66 58" fill="none" xmlns="http://www.w3.org/2000/svg">
<path d="M0.527161 25.7263L0.5 25.8053V25.8888V55.6764C0.5 56.1603 0.657778 56.5948 0.97986 56.9499C1.32579 57.3312 1.79398 57.5 2.31848 57.5C2.83856 57.5 3.31463 57.3383 3.6328 56.9288C3.89474 56.5917 4.03165 56.2031 4.03165 55.7782V49.2527H61.9684V55.6764C61.9684 56.1603 62.1261 56.5948 62.4482 56.9499C62.7941 57.3312 63.2623 57.5 63.7868 57.5C64.3069 57.5 64.783 57.3383 65.1012 56.9288C65.3631 56.5917 65.5 56.2031 65.5 55.7782V25.8896V25.806L65.4728 25.727L57.3752 2.17177C57.2412 1.72003 56.9809 1.33377 56.6128 1.01604C56.2097 0.668166 55.7214 0.5 55.1772 0.5H11.2568C10.6902 0.5 10.1558 0.66803 9.66202 0.987439V0.987439C9.18643 1.29501 8.82193 1.67316 8.63668 2.13881L8.63229 2.14985L8.62843 2.16108L0.527161 25.7263ZM16.9938 32.5348L16.9938 32.5348C16.0722 31.6881 15.0084 31.2491 13.819 31.2491C12.5286 31.2491 11.4231 31.6863 10.5372 32.565C9.65133 33.4437 9.20886 34.5407 9.20886 35.8218C9.20886 37.1049 9.65808 38.2153 10.5491 39.1245C11.44 40.0336 12.5301 40.4964 13.7923 40.4964C15.0597 40.4964 16.1561 40.0159 17.0565 39.0803C17.9483 38.1535 18.4114 37.0704 18.4114 35.8488C18.4114 34.5223 17.9398 33.4041 16.9938 32.5348ZM60.4467 22.5945H5.55332L11.9874 4.24909H54.0126L60.4467 22.5945ZM61.7658 45.5036H4.23418V26.3436H61.7658V45.5036ZM52.2525 40.4964C53.5383 40.4964 54.6317 40.0171 55.4998 39.0718C56.3523 38.1435 56.7911 37.063 56.7911 35.8488C56.7911 34.5329 56.3538 33.4181 55.4648 32.546C54.5863 31.6844 53.5152 31.2491 52.2792 31.2491C51.042 31.2491 49.9472 31.6906 49.0149 32.553C48.0683 33.4286 47.5886 34.5291 47.5886 35.8218C47.5886 37.1193 48.0853 38.2342 49.0536 39.1397C50.002 40.0266 51.0723 40.4964 52.2525 40.4964Z" fill="#34A853" stroke="#34A853"/>
</svg>
