<svg width="114" height="46" viewBox="0 0 114 46" fill="none" xmlns="http://www.w3.org/2000/svg">
<path d="M3.92202 46C2.89358 46 1.9828 45.6058 1.18968 44.8175C0.39656 44.0292 0 43.1109 0 42.0627V41.9155C0 38.6924 1.6398 36.0334 4.91939 33.9386C8.19889 31.844 12.621 30.7966 18.1856 30.7966C18.7414 30.7966 19.3194 30.8074 19.9197 30.8291C20.5199 30.8508 21.0268 30.8911 21.4404 30.9502C20.8949 32.2023 20.4534 33.5492 20.116 34.9907C19.7787 36.4323 19.6101 37.9382 19.6101 39.5085V46H3.92202ZM35.875 46C34.5557 46 33.4761 45.5771 32.6362 44.7314C31.7962 43.8857 31.3761 42.8211 31.3761 41.5376V40.0639C31.3761 35.7961 33.6981 32.4266 38.342 29.9554C42.9861 27.4842 49.1882 26.2486 56.9484 26.2486C64.7048 26.2486 70.9232 27.4842 75.6034 29.9554C80.2837 32.4266 82.6239 35.7961 82.6239 40.0639V41.5376C82.6239 42.8211 82.199 43.8857 81.3492 44.7314C80.4994 45.5771 79.4862 46 78.3096 46H35.875ZM94.3899 46V39.4855C94.3899 38.0076 94.2535 36.5069 93.9807 34.9835C93.708 33.4601 93.2779 32.1039 92.6904 30.9147C93.0168 30.836 93.4759 30.7966 94.0676 30.7966H95.8387C101.349 30.7966 105.753 31.8384 109.052 33.922C112.351 36.0055 114 38.6765 114 41.9348V42.1017C114 43.1239 113.604 44.0292 112.812 44.8175C112.02 45.6058 111.152 46 110.209 46H94.3899ZM57 30.7966C50.8991 30.7966 46.0619 31.5979 42.4885 33.2006C38.9151 34.8032 36.9977 37.0772 36.7362 40.0226V41.452H77.3945V39.8927C77.133 37.1205 75.1938 34.9115 71.5768 33.2655C67.9599 31.6196 63.1009 30.7966 57 30.7966ZM18.1443 26.6384C16.1582 26.6384 14.555 25.993 13.3349 24.7023C12.1147 23.4115 11.5046 21.7953 11.5046 19.8538C11.5046 17.9122 12.1239 16.3052 13.3626 15.0329C14.6013 13.7605 16.2137 13.1243 18.1997 13.1243C20.1858 13.1243 21.8108 13.7697 23.0745 15.0605C24.3383 16.3512 24.9702 17.9674 24.9702 19.9089C24.9702 21.8505 24.3209 23.4575 23.0222 24.7298C21.7236 26.0022 20.0976 26.6384 18.1443 26.6384ZM95.8003 26.6384C93.8142 26.6384 92.1892 25.993 90.9255 24.7023C89.6617 23.4115 89.0298 21.7953 89.0298 19.8538C89.0298 17.9122 89.6791 16.3052 90.9778 15.0329C92.2764 13.7605 93.9024 13.1243 95.8557 13.1243C97.8418 13.1243 99.445 13.7697 100.665 15.0605C101.885 16.3512 102.495 17.9674 102.495 19.9089C102.495 21.8505 101.876 23.4575 100.637 24.7298C99.3987 26.0022 97.7863 26.6384 95.8003 26.6384ZM56.9693 22.3503C53.8957 22.3503 51.2586 21.2668 49.0579 19.0997C46.8572 16.9328 45.7569 14.3015 45.7569 11.2057C45.7569 8.10999 46.8675 5.46846 49.0886 3.28107C51.3099 1.09369 53.9573 0 57.0307 0C60.1043 0 62.7414 1.10387 64.9421 3.31161C67.1428 5.51943 68.2431 8.17119 68.2431 11.2669C68.2431 14.3626 67.1325 16.9837 64.9114 19.1304C62.6901 21.277 60.0427 22.3503 56.9693 22.3503ZM57.0115 4.54802C55.0428 4.54802 53.4375 5.16257 52.1955 6.39166C50.9536 7.62067 50.3326 9.21516 50.3326 11.1751C50.3326 13.2109 50.9497 14.8244 52.184 16.0155C53.4184 17.2067 55.0199 17.8023 56.9885 17.8023C58.9572 17.8023 60.5625 17.2067 61.8045 16.0155C63.0464 14.8244 63.6674 13.2326 63.6674 11.2401C63.6674 9.24765 63.0503 7.63418 61.816 6.39972C60.5816 5.16525 58.9801 4.54802 57.0115 4.54802Z" fill="#FED700"/>
</svg>
