<svg width="63" height="63" viewBox="0 0 63 63" fill="none" xmlns="http://www.w3.org/2000/svg">
<path d="M37.72 38.5703L37.7199 38.5703C37.3643 38.9015 36.9214 39.059 36.4279 39.059H24.8383C24.3099 39.059 23.8242 38.9263 23.4668 38.5813M37.72 38.5703L23.814 38.2215M37.72 38.5703C38.0979 38.2183 38.2598 37.741 38.2598 37.2099M37.72 38.5703L38.2598 37.2099M23.4668 38.5813L23.814 38.2215M23.4668 38.5813C23.4668 38.5813 23.4668 38.5813 23.4668 38.5813L23.814 38.2215M23.4668 38.5813C23.1079 38.235 22.9643 37.7616 22.9643 37.2442C22.9643 36.7253 23.1084 36.2532 23.458 35.8987M23.814 38.2215C23.5809 37.9966 23.4643 37.6708 23.4643 37.2442C23.4643 36.8176 23.5809 36.4861 23.814 36.2497M23.458 35.8987L23.814 36.2497M23.458 35.8987C23.458 35.8987 23.458 35.8987 23.458 35.8987L23.814 36.2497M23.458 35.8987C23.8137 35.5379 24.2999 35.3952 24.8321 35.3952H36.3921C36.9178 35.3952 37.4008 35.5286 37.7574 35.8728M23.814 36.2497L37.7574 35.8728M37.7574 35.8728C38.1163 36.2192 38.2598 36.6925 38.2598 37.2099M37.7574 35.8728L38.2598 37.2099M48.9077 17.4378L48.9077 17.4379C48.552 17.769 48.1092 17.9265 47.6157 17.9265H24.7962C24.2855 17.9265 23.8186 17.7884 23.4668 17.4488M48.9077 17.4378L48.5669 15.1001C48.8207 15.3251 48.9476 15.6509 48.9476 16.0775C48.9476 16.5041 48.8207 16.8356 48.5669 17.0719C48.3131 17.3083 47.996 17.4265 47.6157 17.4265H24.7962C24.3745 17.4265 24.047 17.314 23.814 17.0891C23.5809 16.8641 23.4643 16.5384 23.4643 16.1118C23.4643 15.6851 23.5809 15.3536 23.814 15.1173M48.9077 17.4378C49.2857 17.0858 49.4476 16.6086 49.4476 16.0775C49.4476 15.5475 49.2859 15.0693 48.8986 14.726L48.8986 14.7259C48.542 14.41 48.1023 14.2627 47.6157 14.2627H24.7962C24.2788 14.2627 23.8087 14.4105 23.458 14.7662M48.9077 17.4378L23.814 15.1173M23.4668 17.4488L23.8122 17.0909L23.4668 17.4489C23.4668 17.4489 23.4668 17.4489 23.4668 17.4488ZM23.4668 17.4488C23.1079 17.1025 22.9643 16.6292 22.9643 16.1118C22.9643 15.5929 23.1084 15.1207 23.458 14.7662M23.458 14.7662L23.814 15.1173M23.458 14.7662C23.458 14.7662 23.458 14.7662 23.458 14.7662L23.814 15.1173M48.9077 28.0041L48.9077 28.0041C49.2857 27.652 49.4476 27.1748 49.4476 26.6437C49.4476 26.1137 49.2859 25.6355 48.8986 25.2922L48.8986 25.2922C48.542 24.9762 48.1023 24.829 47.6157 24.829H24.7962C24.2788 24.829 23.8088 24.9767 23.458 25.3324C23.1084 25.6869 22.9643 26.1591 22.9643 26.678C22.9643 27.1954 23.1079 27.6687 23.4668 28.0151C23.8186 28.3547 24.2855 28.4927 24.7962 28.4927H47.6157C48.1092 28.4927 48.552 28.3353 48.9077 28.0041ZM1.1077 13.6194L1.10766 13.6194C0.714801 14.0085 0.5 14.4849 0.5 15.0291V56.0509C0.5 57.8111 1.12745 59.3352 2.36889 60.597L2.72531 60.2464L2.3689 60.597C3.61479 61.8633 5.15182 62.5 6.94905 62.5H47.8821C48.4419 62.5 48.9367 62.2924 49.3456 61.9008L49.3457 61.9008C49.7587 61.5051 49.9803 61.0127 49.9803 60.4469C49.9803 59.8812 49.7588 59.3887 49.346 58.9926L49.346 58.9926C48.9371 58.6003 48.4422 58.3923 47.8821 58.3923H6.94905C6.3948 58.3923 5.86538 58.167 5.34919 57.6508C4.83299 57.1346 4.60771 56.6052 4.60771 56.0509V15.0291C4.60771 14.4743 4.37451 13.9949 3.96022 13.6089C3.5523 13.2288 3.0688 13.0197 2.525 13.0197C1.9798 13.0197 1.50073 13.2302 1.1077 13.6194ZM12.0472 50.9187C13.293 52.185 14.8301 52.8217 16.6274 52.8217H56.0509C57.8137 52.8217 59.3387 52.1828 60.5999 50.9216C61.8611 49.6604 62.5 48.1354 62.5 46.3726V6.94905C62.5 5.18628 61.8611 3.6613 60.5999 2.40009C59.3387 1.13887 57.8137 0.5 56.0509 0.5H16.6274C14.8301 0.5 13.293 1.13669 12.0472 2.40298C10.8058 3.66481 10.1783 5.18891 10.1783 6.94905V46.3726C10.1783 48.1328 10.8058 49.6569 12.0472 50.9187ZM56.0509 48.714H16.6274C16.0731 48.714 15.5437 48.4887 15.0275 47.9725C14.5113 47.4563 14.286 46.9269 14.286 46.3726V6.94905C14.286 6.3948 14.5113 5.86538 15.0275 5.34919C15.5437 4.83299 16.0731 4.60771 16.6274 4.60771H56.0509C56.6052 4.60771 57.1346 4.83299 57.6508 5.34919C58.167 5.86538 58.3923 6.3948 58.3923 6.94905V46.3726C58.3923 46.9269 58.167 47.4563 57.6508 47.9725C57.1346 48.4887 56.6052 48.714 56.0509 48.714Z" fill="#DC2A1B" stroke="#DC2A1B"/>
</svg>
