<svg width="22" height="22" viewBox="0 0 22 22" fill="none" xmlns="http://www.w3.org/2000/svg">
<path d="M16.8885 21.9968C20.1129 22.1111 22.711 18.7604 21.8244 15.6719C21.6847 15.2015 21.558 14.5234 20.9817 14.4339L13.8274 13.3062C13.5855 13.2674 13.3377 13.3544 13.171 13.5371C12.8006 13.9451 12.5071 14.396 12.2932 14.8833C10.0776 13.8721 8.12232 11.9169 7.11253 9.69852C7.69536 9.36509 8.74273 8.98443 8.68808 8.16283L7.56091 1.00364C7.47583 0.43281 6.79207 0.300123 6.33686 0.163396C4.60791 -0.289977 2.74885 0.216222 1.48443 1.48187C0.529904 2.43679 0.00389033 3.70927 0.00389033 5.06349C-0.201982 14.1673 7.79286 22.1848 16.8885 21.9968ZM2.52062 2.51882C3.48229 1.54527 4.89948 1.22893 6.17787 1.64129L7.17463 7.97701C6.61943 8.53075 5.12243 8.41795 5.44878 9.51487C6.60514 12.6692 9.32526 15.3904 12.4764 16.5479C12.8717 16.7058 13.353 16.4525 13.4452 16.0355C13.5526 15.5952 13.743 15.1878 14.0134 14.8199L20.3439 15.8183C21.1494 18.0755 19.2764 20.6077 16.8897 20.5301C12.7676 20.5301 8.89489 18.9266 5.98318 16.0128C3.06433 13.0921 1.46145 9.20475 1.46952 5.06504C1.46952 4.10112 1.84307 3.19717 2.52062 2.51882Z" fill="#383838"/>
</svg>
