<svg width="22" height="30" viewBox="0 0 22 30" fill="none" xmlns="http://www.w3.org/2000/svg">
<mask id="mask0_0_182" style="mask-type:luminance" maskUnits="userSpaceOnUse" x="0" y="0" width="22" height="30">
<path d="M1 0.9H0.9V1V29.7964V29.8964H1H21.1112H21.2112V29.7964V1V0.9H21.1112H1Z" fill="white" stroke="white" stroke-width="0.2"/>
</mask>
<g mask="url(#mask0_0_182)">
<path d="M5.73394 12.518L5.74284 12.5096C6.14828 13.5135 6.85796 14.372 7.77261 14.981L7.77266 14.9811C8.701 15.5985 9.83294 15.9629 11.0556 15.9629C12.2779 15.9629 13.4099 15.5985 14.3382 14.9811L14.3382 14.981C15.2949 14.344 16.0346 13.434 16.4293 12.3695L16.4293 12.3694C16.5351 12.0834 16.6127 11.7908 16.6687 11.4927C16.7254 11.1931 16.7533 10.8931 16.7533 10.5872C16.7533 9.09661 16.1115 7.75376 15.0773 6.78417C14.0497 5.80799 12.6295 5.20463 11.0556 5.20463C9.48176 5.20463 8.06117 5.80797 7.0336 6.78414C5.99932 7.75373 5.35757 9.0966 5.35757 10.5872C5.35757 10.8932 5.3859 11.1931 5.44213 11.4924C5.49853 11.7973 5.57575 12.0896 5.68152 12.376L5.73394 12.518ZM6.84145 11.2669L6.84135 11.2664C6.80115 11.0515 6.78091 10.8226 6.78091 10.5872C6.78091 9.47554 7.25838 8.47081 8.028 7.73818C8.80436 7.01174 9.87194 6.55903 11.0556 6.55903C12.2389 6.55903 13.3065 7.01175 14.0829 7.73821C14.8525 8.47085 15.3303 9.47558 15.3303 10.5872C15.3303 10.8226 15.3101 11.0515 15.2699 11.2664L15.2697 11.2672C15.2291 11.4958 15.1686 11.7116 15.0944 11.9223C14.7979 12.7166 14.2452 13.3976 13.5293 13.8754L13.5292 13.8754C12.8338 14.3406 11.9823 14.6151 11.0556 14.6151C10.1286 14.6151 9.2771 14.3406 8.58168 13.8754L8.58161 13.8754C7.866 13.3976 7.31328 12.7165 7.01683 11.9223C6.94241 11.7121 6.88181 11.4894 6.84145 11.2669ZM20.5901 13.7602L20.5902 13.7602L20.5917 13.7572C20.5925 13.7557 20.5933 13.7542 20.5941 13.7526C20.6058 13.7303 20.6226 13.6984 20.6326 13.6638C20.8204 13.1639 20.9669 12.6377 21.0642 12.1051L21.0644 12.1039C21.155 11.5716 21.2112 11.0374 21.2112 10.4891C21.2112 7.83803 20.0715 5.44487 18.2286 3.70586C16.3928 1.97356 13.8595 0.900366 11.0556 0.900366C8.25131 0.900366 5.71841 1.97356 3.88225 3.70586L3.88224 3.70586C2.03936 5.44487 0.9 7.83804 0.9 10.4891C0.9 11.0373 0.955809 11.5715 1.04642 12.1039L1.04641 12.1039L1.04665 12.1051C1.14447 12.6381 1.29072 13.1648 1.47876 13.6652C1.49323 13.7109 1.51414 13.7488 1.5303 13.7781C1.53399 13.7848 1.53743 13.791 1.54049 13.7968L1.54046 13.7968L1.54184 13.7993L10.4292 29.5032L10.4293 29.5033C10.6155 29.8317 11.0467 29.9503 11.3822 29.7789C11.5202 29.7169 11.6178 29.6162 11.6822 29.4955L20.5901 13.7602ZM19.313 13.1797L11.0556 27.7641L2.79785 13.1797C2.64275 12.7573 2.52744 12.3223 2.446 11.8798C2.36426 11.4294 2.32295 10.966 2.32295 10.4891C2.32295 8.21682 3.29854 6.1556 4.87654 4.66664C6.46149 3.17739 8.64181 2.25476 11.0556 2.25476C13.4694 2.25476 15.6493 3.17735 17.2346 4.66656C18.8123 6.15553 19.7879 8.21679 19.7879 10.4891C19.7879 10.966 19.747 11.4294 19.6653 11.8797C19.5834 12.3223 19.4685 12.7574 19.313 13.1797Z" fill="#383838" stroke="#383838" stroke-width="0.2"/>
</g>
</svg>
