<svg width="27" height="27" viewBox="0 0 27 27" fill="none" xmlns="http://www.w3.org/2000/svg">
<mask id="mask0_0_188" style="mask-type:luminance" maskUnits="userSpaceOnUse" x="0" y="0" width="27" height="27">
<path d="M26 0.9H26.1V1V26V26.1H26H1H0.9V26V1V0.9H1H26Z" fill="white" stroke="white" stroke-width="0.2"/>
</mask>
<g mask="url(#mask0_0_188)">
<path d="M13.5002 0.898535C20.4493 0.898535 26.102 6.55229 26.102 13.5003C26.102 20.448 20.4493 26.1018 13.5002 26.1018C6.5514 26.1018 0.898733 20.448 0.898733 13.5003C0.898733 6.55229 6.5514 0.898535 13.5002 0.898535ZM13.5002 24.7106C19.6821 24.7106 24.7108 19.6819 24.7108 13.5003C24.7108 7.31842 19.682 2.28865 13.5002 2.28865C7.31863 2.28865 2.28885 7.31843 2.28885 13.5003C2.28885 19.6818 7.31861 24.7106 13.5002 24.7106Z" fill="#383838" stroke="#383838" stroke-width="0.2"/>
</g>
<path d="M12.7005 13.3953V6.59083C12.7005 6.20829 13.0153 5.9 13.4001 5.9C13.7848 5.9 14.1 6.20822 14.1 6.59083V13.6822C14.1 13.8658 14.026 14.0416 13.8946 14.171L9.09452 18.8983C8.9577 19.0331 8.7785 19.1 8.60037 19.1C8.42221 19.1 8.24308 19.0331 8.10597 18.8984C7.8314 18.6289 7.83129 18.1896 8.10594 17.9203L8.10586 17.9204L8.17603 17.9916L8.10602 17.9202L12.7005 13.3953Z" fill="#383838" stroke="#383838" stroke-width="0.2"/>
</svg>
