<svg width="20" height="18" viewBox="0 0 20 18" fill="none" xmlns="http://www.w3.org/2000/svg">
<g clip-path="url(#clip0_20_51)">
<path d="M14.3618 0.00360305L11.9131 0C9.16208 0 7.38422 1.67272 7.38422 4.26169V6.22661H4.92215C4.70939 6.22661 4.53711 6.38478 4.53711 6.57989V9.42684C4.53711 9.62194 4.70959 9.77994 4.92215 9.77994H7.38422V16.9637C7.38422 17.1588 7.55651 17.3168 7.76926 17.3168H10.9816C11.1943 17.3168 11.3666 17.1586 11.3666 16.9637V9.77994H14.2454C14.4581 9.77994 14.6304 9.62194 14.6304 9.42684L14.6316 6.57989C14.6316 6.48621 14.5909 6.39649 14.5188 6.3302C14.4467 6.2639 14.3485 6.22661 14.2463 6.22661H11.3666V4.56092C11.3666 3.76032 11.5746 3.3539 12.7119 3.3539L14.3615 3.35336C14.574 3.35336 14.7463 3.19518 14.7463 3.00026V0.356702C14.7463 0.161957 14.5742 0.00396335 14.3618 0.00360305Z" fill="#494949"/>
</g>
<defs>
<clipPath id="clip0_20_51">
<rect width="18.8832" height="17.3169" fill="white" transform="translate(0.199219)"/>
</clipPath>
</defs>
</svg>
