<svg width="19" height="18" viewBox="0 0 19 18" fill="none" xmlns="http://www.w3.org/2000/svg">
<g clip-path="url(#clip0_20_54)">
<path d="M12.9823 0H5.90104C2.64249 0 0 2.42329 0 5.41155V11.9054C0 14.8937 2.64249 17.317 5.90104 17.317H12.9823C16.2408 17.317 18.8833 14.8937 18.8833 11.9054V5.41155C18.8833 2.42329 16.2408 0 12.9823 0ZM17.113 11.9054C17.113 13.9943 15.2601 15.6935 12.9823 15.6935H5.90104C3.62324 15.6935 1.77031 13.9943 1.77031 11.9054V5.41155C1.77031 3.32269 3.62324 1.62347 5.90104 1.62347H12.9823C15.2601 1.62347 17.113 3.32269 17.113 5.41155V11.9054Z" fill="#494949"/>
<path d="M9.44166 4.32925C6.83458 4.32925 4.72083 6.26767 4.72083 8.65849C4.72083 11.0493 6.83458 12.9877 9.44166 12.9877C12.0487 12.9877 14.1625 11.0493 14.1625 8.65849C14.1625 6.26767 12.0487 4.32925 9.44166 4.32925ZM9.44166 11.3643C7.81533 11.3643 6.49114 10.1499 6.49114 8.65849C6.49114 7.16598 7.81533 5.95271 9.44166 5.95271C11.068 5.95271 12.3922 7.16598 12.3922 8.65849C12.3922 10.1499 11.068 11.3643 9.44166 11.3643Z" fill="#494949"/>
<path d="M14.5158 4.58148C14.8632 4.58148 15.1448 4.3232 15.1448 4.00461C15.1448 3.68601 14.8632 3.42773 14.5158 3.42773C14.1684 3.42773 13.8867 3.68601 13.8867 4.00461C13.8867 4.3232 14.1684 4.58148 14.5158 4.58148Z" fill="#494949"/>
</g>
<defs>
<clipPath id="clip0_20_54">
<rect width="18.8832" height="17.3169" fill="white"/>
</clipPath>
</defs>
</svg>
