<svg width="23" height="22" viewBox="0 0 23 22" fill="none" xmlns="http://www.w3.org/2000/svg">
<path d="M17.3885 21.9968C20.6129 22.1111 23.211 18.7604 22.3244 15.6719C22.1847 15.2014 22.058 14.5234 21.4817 14.4339L14.3274 13.3062C14.0855 13.2674 13.8377 13.3544 13.671 13.5371C13.3006 13.9451 13.0071 14.396 12.7932 14.8832C10.5776 13.8721 8.62232 11.9169 7.61253 9.69852C8.19536 9.36509 9.24273 8.98443 9.18808 8.16283L8.06091 1.00364C7.97583 0.432809 7.29207 0.300122 6.83686 0.163396C5.10791 -0.289977 3.24885 0.216222 1.98443 1.48187C1.0299 2.43679 0.50389 3.70927 0.50389 5.06349C0.298019 14.1673 8.29287 22.1848 17.3885 21.9968ZM3.02062 2.51882C3.98229 1.54527 5.39948 1.22893 6.67787 1.64129L7.67463 7.97701C7.11943 8.53075 5.62243 8.41795 5.94878 9.51487C7.10514 12.6692 9.82526 15.3904 12.9764 16.5479C13.3717 16.7058 13.853 16.4525 13.9452 16.0355C14.0526 15.5952 14.243 15.1878 14.5134 14.8199L20.8439 15.8183C21.6494 18.0755 19.7764 20.6077 17.3897 20.5301C13.2676 20.5301 9.39489 18.9266 6.48318 16.0128C3.56433 13.0921 1.96145 9.20475 1.96952 5.06504C1.96952 4.10112 2.34307 3.19717 3.02062 2.51882Z" fill="white"/>
</svg>
