<svg width="91" height="91" viewBox="0 0 91 91" fill="none" xmlns="http://www.w3.org/2000/svg">
<rect x="4.70711" y="45.2549" width="57" height="57" transform="rotate(-45 4.70711 45.2549)" stroke="white"/>
<path d="M32.3593 50.125H24.7593L23.3593 54H20.9593L27.2593 36.675H29.8843L36.1593 54H33.7593L32.3593 50.125ZM31.7093 48.275L28.5593 39.475L25.4093 48.275H31.7093ZM44.33 36.575C46.23 36.575 47.8716 36.9333 49.255 37.65C50.655 38.35 51.7216 39.3583 52.455 40.675C53.205 41.9917 53.58 43.5417 53.58 45.325C53.58 47.1083 53.205 48.6583 52.455 49.975C51.7216 51.275 50.655 52.275 49.255 52.975C47.8716 53.6583 46.23 54 44.33 54H38.905V36.575H44.33ZM44.33 52.125C46.58 52.125 48.2966 51.5333 49.48 50.35C50.6633 49.15 51.255 47.475 51.255 45.325C51.255 43.1583 50.655 41.4667 49.455 40.25C48.2716 39.0333 46.5633 38.425 44.33 38.425H41.18V52.125H44.33ZM65.7558 54L61.6058 46.875H58.8558V54H56.5808V36.575H62.2058C63.5224 36.575 64.6308 36.8 65.5308 37.25C66.4474 37.7 67.1308 38.3083 67.5808 39.075C68.0308 39.8417 68.2558 40.7167 68.2558 41.7C68.2558 42.9 67.9058 43.9583 67.2058 44.875C66.5224 45.7917 65.4891 46.4 64.1058 46.7L68.4808 54H65.7558ZM58.8558 45.05H62.2058C63.4391 45.05 64.3641 44.75 64.9808 44.15C65.5974 43.5333 65.9058 42.7167 65.9058 41.7C65.9058 40.6667 65.5974 39.8667 64.9808 39.3C64.3808 38.7333 63.4558 38.45 62.2058 38.45H58.8558V45.05Z" fill="white"/>
</svg>
