<svg width="51" height="26" viewBox="0 0 51 26" fill="none" xmlns="http://www.w3.org/2000/svg">
<g clip-path="url(#clip0_238_15)">
<path d="M37.4667 16.8383C33.0841 16.0747 17.8017 16.0747 13.4093 16.8383C9.90212 17.4452 7.6569 18.1411 6.17082 19.0895C6.14141 19.1079 6.112 19.1262 6.08398 19.1446V26.0013C18.8018 23.2406 31.7829 23.7501 44.9096 26.0013V19.2138L44.7444 19.1107C43.2289 18.1411 41.0033 17.4466 37.4667 16.8397V16.8383Z" fill="white"/>
<path d="M49.1249 8.76763C46.9161 6.58697 42.787 4.45712 36.8917 2.48817C31.8018 0.793039 28.5075 0.011105 25.4765 -0.000186425C23.6697 -0.0199465 21.9497 0.243991 20.007 0.743639C11.5066 2.95112 5.38859 5.6272 2.29459 8.39501C0.790303 9.74011 0.000343356 11.1078 0.000343356 12.4529C-0.0094611 13.4324 0.185227 13.8135 1.29313 15.057C2.00185 15.8587 3.33386 17.0443 4.22747 17.6992C5.13088 18.3654 5.89843 18.9031 5.94745 18.9031C5.96005 18.9031 6.00908 18.8791 6.08331 18.8382C6.278 18.7295 6.65617 18.4938 7.06516 18.2172C8.484 17.2772 10.6312 16.5729 13.9927 15.9659C18.1904 15.2122 32.8033 15.2122 37.001 15.9659C40.3723 16.5729 42.5097 17.2673 43.9579 18.2369L44.9104 18.8763L45.007 18.9412L46.5225 17.8841C47.3671 17.3068 48.7187 16.1127 49.5241 15.2207C50.8253 13.8121 51.0003 13.479 51.0003 12.4599C51.0003 11.2263 50.363 9.98711 49.1263 8.76481L49.1249 8.76763Z" fill="white"/>
<path d="M25.383 14.0691C25.3564 14.0479 25.1295 13.9364 24.8774 13.8221C23.8521 13.3521 23.3591 13.036 22.824 12.5067C22.0187 11.7106 21.4794 10.5109 21.2987 9.10793C21.2301 8.57582 21.2105 8.08747 21.2259 7.36905C21.2441 6.55748 21.2259 6.39234 21.0788 6.05501C20.9892 5.84894 20.9023 5.72614 20.7637 5.60335L20.6895 5.53842L20.8575 4.96679C20.95 4.65204 21.0326 4.37681 21.0396 4.35564C21.0508 4.32177 21.0816 4.33306 21.2203 4.41633C21.7133 4.71415 22.3128 4.84964 23.0187 4.82283C23.9095 4.78895 24.7331 4.44597 25.2863 3.87999C25.3578 3.80801 25.4264 3.74731 25.4404 3.74731C25.4544 3.74731 25.5202 3.80236 25.5861 3.87011C26.2262 4.51796 27.1534 4.85952 28.1647 4.82141C28.7697 4.79883 29.2768 4.6591 29.6871 4.40222C29.8188 4.31894 29.8328 4.31612 29.8468 4.35846C29.8552 4.38387 29.9379 4.66051 30.0289 4.97103L30.1956 5.53842L30.1452 5.585C29.8678 5.84329 29.7586 6.05218 29.6815 6.46856C29.6493 6.64216 29.6465 6.77484 29.6605 7.35494C29.6759 8.0663 29.6549 8.59417 29.5877 9.10793C29.4028 10.5208 28.8678 11.712 28.0652 12.5067C27.5498 13.0162 27.0007 13.3719 26.1001 13.7798C25.7962 13.9181 25.502 14.0607 25.4446 14.0988C25.4376 14.103 25.411 14.0903 25.3844 14.0691H25.383Z" fill="black"/>
</g>
<defs>
<clipPath id="clip0_238_15">
<rect width="51" height="26" fill="white"/>
</clipPath>
</defs>
</svg>
