<svg width="56" height="46" viewBox="0 0 56 46" fill="none" xmlns="http://www.w3.org/2000/svg">
<g clip-path="url(#clip0_0_85)">
<path d="M52.0271 41.4754C51.5255 41.553 50.9623 41.5996 50.3296 41.5996H49.2957C49.2957 40.6915 48.5627 39.9542 47.66 39.9542C46.7573 39.9542 46.032 40.6915 46.032 41.5996H43.293C43.293 39.1781 45.2527 37.2068 47.66 37.2068C50.0673 37.2068 51.9653 39.1083 52.0271 41.4754Z" fill="white"/>
<path d="M52.0349 41.5995C52.0349 44.021 50.0828 45.9923 47.6678 45.9923C45.2528 45.9923 43.3008 44.021 43.3008 41.5995H46.0398C46.0398 42.4998 46.7728 43.2371 47.6678 43.2371C48.5628 43.2371 49.3035 42.4998 49.3035 41.5995H50.3374C50.9701 41.5995 51.5334 41.553 52.0349 41.4753C52.0349 41.5141 52.0349 41.5607 52.0349 41.5995Z" fill="white"/>
<path d="M29.5349 41.5996H26.7958C26.7958 40.6915 26.0628 39.9542 25.1678 39.9542C24.2728 39.9542 23.5398 40.6915 23.5398 41.5996H20.8008C20.8008 39.1781 22.7605 37.2068 25.1678 37.2068C27.5751 37.2068 29.5349 39.1781 29.5349 41.5996Z" fill="white"/>
<path d="M26.7958 41.5994H29.5349C29.5349 44.0208 27.5751 45.9921 25.1678 45.9921C22.7605 45.9921 20.8008 44.0208 20.8008 41.5994H23.5398C23.5398 42.4997 24.2651 43.237 25.1678 43.237C26.0706 43.237 26.7958 42.4997 26.7958 41.5994Z" fill="white"/>
<path d="M25.7478 22.5538L20.9023 25.3478C20.9023 24.9985 20.9023 24.6493 20.9023 24.2922L25.4391 21.6768L25.7478 22.546V22.5538Z" fill="white"/>
<path d="M26.2399 22.2743L25.7461 22.5537L25.4375 21.6845L25.7924 21.4827L26.2399 22.2743Z" fill="white"/>
<path d="M25.4379 21.6846L25.0058 20.4583C24.8284 19.9771 25.083 19.4416 25.5614 19.2709C25.6694 19.2321 25.7697 19.2166 25.8777 19.2166C26.2558 19.2166 26.6107 19.4571 26.7419 19.8297L27.8452 22.9108C28.0149 23.3998 27.768 23.9275 27.2819 24.0983C27.1816 24.1371 27.0736 24.1526 26.9733 24.1526C26.5953 24.1526 26.2403 23.912 26.1015 23.5317L25.7465 22.5461L26.2403 22.2589L25.7928 21.4673L25.4379 21.6691V21.6846Z" fill="white"/>
<path d="M20.9021 24.2999L18.8498 25.4874H18.4948C17.7078 4.31509 28.3168 2.42139 28.3168 2.42139H43.9718C47.1507 2.42139 46.9192 5.84403 46.9192 5.84403V17.6409H43.9718V5.16105H28.9958C22.3141 5.16105 20.9947 16.2905 20.9021 24.2999Z" fill="white"/>
<path d="M54.7803 26.4575C54.7803 25.8521 54.1322 25.3632 53.3298 25.3632H40.5218C40.1206 25.3632 39.758 25.4873 39.4956 25.6814C39.2333 25.8832 39.0713 26.1548 39.0713 26.4575C39.0713 27.0628 39.7194 27.5518 40.5218 27.5518H53.3298C54.1322 27.5518 54.7803 27.0628 54.7803 26.4575ZM25.1677 36.2442C22.2281 36.2442 19.8439 38.6424 19.8439 41.5994H19.0801C19.0801 41.5994 16.9043 40.7689 16.9043 38.0293V37.0436H19.8439V35.3983H16.9043V35.2818C16.9043 32.5422 19.0801 32.3171 19.0801 32.3171H29.4499L40.3444 17.6409H52.1416C52.1416 17.6409 55.9994 17.7107 55.9994 21.3584V37.7964C55.9994 37.7964 56.1537 40.3421 52.9748 41.2656C52.8051 38.4561 50.4904 36.2442 47.6588 36.2442C44.8271 36.2442 42.335 38.6424 42.335 41.5994H30.4915C30.4915 38.6424 28.0997 36.2442 25.1677 36.2442ZM54.4099 22.7787C54.4099 22.1733 53.9239 21.6844 53.322 21.6844H43.7007C43.3997 21.6844 43.1297 21.8086 42.9291 22.0026C42.7362 22.2044 42.6128 22.476 42.6128 22.7787C42.6128 23.3841 43.0988 23.873 43.7007 23.873H53.322C53.9316 23.873 54.4099 23.3841 54.4099 22.7787Z" fill="white"/>
<path d="M19.8439 35.406V37.0514H16.9043V35.406H19.8439Z" fill="white"/>
<path d="M19.3049 26.2791L18.8574 25.4875L20.9098 24.3C20.9098 24.6571 20.9098 25.0063 20.9098 25.3556L19.3126 26.2791H19.3049Z" fill="white"/>
<path d="M18.7798 29.6241C18.641 28.1727 18.5484 26.799 18.5021 25.5029H18.857L19.3045 26.279L20.9016 25.3555C20.9016 26.9931 20.9556 28.4599 21.0174 29.6241H18.7798Z" fill="white"/>
<path d="M16.904 35.406V37.0514H15.0137V35.406H16.904Z" fill="white"/>
<path d="M15.0228 37.0437V40.8777H13.5723V38.9452V34.6533V0H15.0228V35.4061V37.0437Z" fill="white"/>
<path d="M13.5718 34.6533V38.9452L0 36.6634V34.6533H13.5718Z" fill="white"/>
</g>
<defs>
<clipPath id="clip0_0_85">
<rect width="56" height="46" fill="white"/>
</clipPath>
</defs>
</svg>
