<svg width="39" height="48" viewBox="0 0 39 48" fill="none" xmlns="http://www.w3.org/2000/svg">
<path d="M18.1277 48H13.8723C12.2886 48 11 46.7004 11 45.103V23.7511C11 23.3364 11.3335 23 11.7447 23C12.1559 23 12.4894 23.3364 12.4894 23.7511V45.103C12.4894 45.872 13.1098 46.4979 13.8723 46.4979H18.1277C18.8902 46.4979 19.5106 45.872 19.5106 45.103V23.7511C19.5106 23.3364 19.8441 23 20.2553 23C20.6665 23 21 23.3364 21 23.7511V45.103C21 46.7004 19.7114 48 18.1277 48Z" fill="white"/>
<path d="M20.2553 15C19.8441 15 19.5106 14.6517 19.5106 14.2222V3C19.5106 2.20361 18.8902 1.55556 18.1277 1.55556H13.8723C13.1098 1.55556 12.4894 2.20361 12.4894 3V14.2222C12.4894 14.6517 12.1559 15 11.7447 15C11.3335 15 11 14.6517 11 14.2222V3C11 1.34583 12.2886 0 13.8723 0H18.1277C19.7114 0 21 1.34583 21 3V14.2222C21 14.6517 20.6665 15 20.2553 15Z" fill="white"/>
<path d="M31.1186 9.12209H24.613C24.1939 9.12209 23.854 8.78258 23.854 8.36402C23.854 7.94546 24.1939 7.60596 24.613 7.60596H31.1186C31.5377 7.60596 31.8776 7.94546 31.8776 8.36402C31.8776 8.78258 31.5377 9.12209 31.1186 9.12209Z" fill="white"/>
<path d="M31.1186 30.781H24.613C24.1939 30.781 23.854 30.4415 23.854 30.023C23.854 29.6044 24.1939 29.2649 24.613 29.2649H31.1186C31.5377 29.2649 31.8776 29.6044 31.8776 30.023C31.8776 30.4415 31.5377 30.781 31.1186 30.781Z" fill="white"/>
<path d="M31.1186 41.6106H24.613C24.1939 41.6106 23.854 41.2711 23.854 40.8525C23.854 40.434 24.1939 40.0945 24.613 40.0945H31.1186C31.5377 40.0945 31.8776 40.434 31.8776 40.8525C31.8776 41.2711 31.5377 41.6106 31.1186 41.6106Z" fill="white"/>
<path d="M37.4 6.56947C37.7115 6.86106 37.8924 7.28363 37.8998 7.81599V7.84984C37.8998 8.39452 37.718 8.82714 37.3999 9.12411C37.0809 9.42182 36.6145 9.59277 36.0283 9.59277H35.2552H35.1552V9.69277V10.9H34.1V6.1H36.0285C36.6147 6.1 37.0811 6.27095 37.4 6.56947ZM35.2552 7.01421H35.1552V7.11421V8.57856V8.67856H35.2552H35.9523C36.2288 8.67856 36.4521 8.60625 36.6065 8.45775C36.7614 8.30871 36.8321 8.09719 36.8321 7.84984C36.8321 7.59943 36.7616 7.38618 36.6067 7.23613C36.4523 7.08653 36.2288 7.01421 35.9523 7.01421H35.2552Z" fill="white" stroke="black" stroke-width="0.2"/>
<path d="M35.9978 20.6442V20.5713H35.8978H35.2279H35.1279V20.6713V21.8997H34.1V17.1H35.9845C36.557 17.1 37.0124 17.2706 37.3239 17.5687C37.635 17.8663 37.8132 18.3009 37.8132 18.85C37.8132 19.5545 37.5186 20.061 37.015 20.3412L36.925 20.3913L36.9777 20.4798L37.824 21.9H36.7423L35.9978 20.6442ZM35.2282 18.0142H35.1282V18.1142V19.5784V19.6784H35.2282H35.9102C36.1816 19.6784 36.4009 19.6058 36.5524 19.4569C36.7041 19.3077 36.7731 19.0965 36.7731 18.8497C36.7731 18.6031 36.7042 18.3904 36.5529 18.2397C36.4016 18.0889 36.1822 18.0142 35.9102 18.0142H35.2282Z" fill="white" stroke="black" stroke-width="0.2"/>
<path d="M36.137 31.7454V31.7457H36.237C36.6752 31.7457 37.0486 31.583 37.3109 31.2769C37.5718 30.9724 37.7149 30.5356 37.7149 29.9998C37.7149 29.464 37.5718 29.0273 37.3109 28.7228C37.0486 28.4167 36.6752 28.254 36.237 28.254H35.3712H35.2712V28.354V31.6454V31.7454H35.3712H36.137ZM34.1 27.1H36.2924C37.0705 27.1 37.7196 27.3795 38.1749 27.8765C38.6309 28.3741 38.9 29.0983 38.9 29.9998C38.9 30.9014 38.6309 31.6257 38.1749 32.1234C37.7196 32.6204 37.0705 32.9 36.2924 32.9H34.1V27.1Z" fill="white" stroke="black" stroke-width="0.2"/>
<path d="M36.9349 40.6642V38.1H37.9V42.9H37.0731L35.2471 40.2784L35.0651 40.017V40.3356V42.9H34.1V38.1H34.9269L36.7529 40.7213L36.9349 40.9827V40.6642Z" fill="white" stroke="black" stroke-width="0.2"/>
<path d="M29.0612 24H2.93878C1.31837 24 0 22.7114 0 21.1277V16.8723C0 15.2886 1.31837 14 2.93878 14H29.0612C30.6816 14 32 15.2886 32 16.8723V21.1277C32 22.7114 30.6816 24 29.0612 24ZM2.93878 15.4894C2.15864 15.4894 1.52381 16.1098 1.52381 16.8723V21.1277C1.52381 21.8902 2.15864 22.5106 2.93878 22.5106H29.0612C29.8414 22.5106 30.4762 21.8902 30.4762 21.1277V16.8723C30.4762 16.1098 29.8414 15.4894 29.0612 15.4894H2.93878Z" fill="white"/>
<path d="M28.4965 23H3.5035C2.12121 23 1 21.2086 1 19C1 16.7914 2.12121 15 3.5035 15H28.4965C29.8788 15 31 16.7914 31 19C31 21.2086 29.8788 23 28.4965 23Z" fill="white"/>
</svg>
