<svg width="91" height="27" viewBox="0 0 91 27" fill="none" xmlns="http://www.w3.org/2000/svg">
<g clip-path="url(#clip0_0_368)">
<path d="M16.8792 0.400879H48.6582V16.0379H16.8792V0.400879Z" fill="white" stroke="white" stroke-miterlimit="10"/>
<path d="M46.2105 17.5273V22.357H42.7443C42.7854 20.1758 41.8243 18.8768 40.9208 18.0027L46.2105 18.0267V17.5273Z" fill="white" stroke="white" stroke-miterlimit="10"/>
<path d="M14.6369 17.9065C14.5794 17.9065 14.5301 17.8584 14.5301 17.8023L14.2591 3.69683C14.2591 3.69683 14.2426 3.65674 14.218 3.65674H4.35329C4.27936 3.65674 4.21365 3.69683 4.18901 3.76099L0.427124 11.4512C0.427124 11.4512 0.418907 11.4753 0.418907 11.4913V20.9297C0.418907 21.1141 0.501041 21.2986 0.640675 21.4269L1.01851 21.7717C1.10064 21.8438 1.20742 21.8839 1.3142 21.8839L2.75161 21.8438L2.81732 21.3868C2.98981 20.216 3.44156 19.0933 4.21365 18.1792C4.21365 18.1792 4.22187 18.1711 4.23008 18.1631C4.91182 17.3692 4.92825 17.3211 5.81533 16.7598L6.54635 16.4631C7.15417 16.2225 7.41701 16.1904 8.0659 16.1103C8.46837 16.0621 8.79692 16.0541 9.11725 16.1103C9.80721 16.2305 10.4725 16.4631 11.105 16.7678L11.6635 17.0405C12.6492 17.5617 13.2241 18.2754 13.6594 19.2216C13.9962 19.9514 14.1851 20.7292 14.2919 21.5231L14.374 22.1245H30.243C30.7605 20.1117 30.9987 19.2537 32.51 17.8985L14.6451 17.9145L14.6369 17.9065ZM13.1666 4.89167V12.3493C13.1666 12.3493 13.1502 12.3814 13.1338 12.3814H2.34092C2.34092 12.3814 2.30806 12.3654 2.30806 12.3493L2.13557 11.0904V11.0743L5.16645 4.87563C5.16645 4.87563 5.18287 4.85959 5.1993 4.85959H13.1338C13.1338 4.85959 13.1666 4.87563 13.1666 4.89167Z" fill="white" stroke="white" stroke-miterlimit="10"/>
<path d="M32.7646 22.3491C32.7646 24.5383 34.5798 26.3105 36.8222 26.3105C39.0645 26.3105 40.8798 24.5383 40.8798 22.3491C40.8798 20.1599 39.0645 18.3877 36.8222 18.3877C34.5798 18.3877 32.7646 20.1599 32.7646 22.3491ZM36.8222 19.5505C38.4074 19.5505 39.6888 20.8014 39.6888 22.3491C39.6888 23.8968 38.4074 25.1477 36.8222 25.1477C35.2369 25.1477 33.9556 23.8968 33.9556 22.3491C33.9556 20.8014 35.2369 19.5505 36.8222 19.5505Z" fill="white" stroke="white" stroke-miterlimit="10"/>
<path d="M4.27935 22.1164C4.27935 24.3056 6.09459 26.0778 8.33694 26.0778C10.5793 26.0778 12.3945 24.3056 12.3945 22.1164C12.3945 19.9272 10.5793 18.155 8.33694 18.155C6.09459 18.155 4.27935 19.9272 4.27935 22.1164ZM8.33694 19.3178C9.92219 19.3178 11.2035 20.5688 11.2035 22.1164C11.2035 23.6641 9.92219 24.9151 8.33694 24.9151C6.75169 24.9151 5.47035 23.6641 5.47035 22.1164C5.47035 20.5688 6.75169 19.3178 8.33694 19.3178Z" fill="white" stroke="white" stroke-miterlimit="10"/>
<path d="M88.4537 18.3877V22.6297H83.2052C83.2052 22.3571 83.3119 21.3627 82.9998 20.5689L82.6466 19.9434C82.4084 19.5264 82.2524 19.374 81.9156 19.0292L81.2831 18.3877H88.4537Z" fill="white" stroke="white" stroke-miterlimit="10"/>
<path d="M63.0781 18.3957L62.7365 18.7082C62.4244 19.1012 62.1369 19.5102 61.8741 19.9352L61.7098 20.2078C61.5866 20.4083 61.488 20.6248 61.4059 20.8493L61.2827 21.1861C61.2006 21.4107 61.1595 21.6432 61.1595 21.8838V22.6376H55.1799V18.3955H62.9829L63.0781 18.3957Z" fill="white" stroke="white" stroke-miterlimit="10"/>
<path d="M63.0569 22.6377C63.0569 24.8268 64.8721 26.599 67.1144 26.599C69.3568 26.599 71.172 24.8268 71.172 22.6377C71.172 20.4485 69.3568 18.6763 67.1144 18.6763C64.8721 18.6763 63.0569 20.4485 63.0569 22.6377ZM67.1144 19.839C68.6997 19.839 69.981 21.09 69.981 22.6377C69.981 24.1853 68.6997 25.4363 67.1144 25.4363C65.5292 25.4363 64.2478 24.1853 64.2478 22.6377C64.2478 21.09 65.5292 19.839 67.1144 19.839Z" fill="white" stroke="white" stroke-miterlimit="10"/>
<path d="M73.1762 22.6377C73.1762 24.8268 74.9914 26.599 77.2338 26.599C79.4761 26.599 81.2914 24.8268 81.2914 22.6377C81.2914 20.4485 79.4761 18.6763 77.2338 18.6763C74.9914 18.6763 73.1762 20.4485 73.1762 22.6377ZM77.2338 19.839C78.819 19.839 80.1004 21.09 80.1004 22.6377C80.1004 24.1853 78.819 25.4363 77.2338 25.4363C75.6485 25.4363 74.3672 24.1853 74.3672 22.6377C74.3672 21.09 75.6485 19.839 77.2338 19.839Z" fill="white" stroke="white" stroke-miterlimit="10"/>
<path d="M52.954 0.400879H90.5893V16.0379H52.954V0.400879Z" fill="white" stroke="white" stroke-miterlimit="10"/>
</g>
<defs>
<clipPath id="clip0_0_368">
<rect width="91" height="27" fill="white" transform="matrix(-1 0 0 1 91 0)"/>
</clipPath>
</defs>
</svg>
