<svg width="105" height="66" viewBox="0 0 105 66" fill="none" xmlns="http://www.w3.org/2000/svg">
<path fill-rule="evenodd" clip-rule="evenodd" d="M28.6643 32.3138H49.3547L50.8298 18.4904H49.8464V16.2818L57.7135 15H73.2706L73.9 18.4904H73.3493L74.3523 28.4487H76.1421L77.7548 35.9422L77.8728 36.0408L77.7942 36.1196L78.2859 38.4268L80.3116 38.979L80.9803 41.4439L77.8925 42.2721C78.0695 42.7651 78.2072 43.2581 78.3252 43.7905L78.4629 43.5933C78.6989 43.5539 78.9152 43.5342 79.1512 43.4947C79.2692 44.8554 79.1512 46.0386 78.7185 47.0048H78.6202C78.5809 48.2274 78.3645 49.3712 78.0302 50.4557L78.2465 50.3571C78.4629 50.436 78.6792 50.5346 78.8956 50.6135C78.3252 51.8558 77.6172 52.8221 76.7714 53.4334H76.6731C76.1618 54.2222 75.5521 54.9912 74.8637 55.6814C74.726 55.8195 74.5883 55.9575 74.4507 56.0955H74.6867C74.8243 56.2927 74.9817 56.4702 75.1194 56.6674C73.9983 57.4562 72.9166 57.9294 71.8742 58.0478L71.8152 57.9886C70.8121 58.521 69.7108 58.9351 68.57 59.1915L68.7667 59.3098C68.806 59.5464 68.8257 59.7634 68.865 60C67.508 60.1183 66.3279 60 65.3642 59.5662V59.4676C64.1448 59.4281 63.0041 59.2112 61.9223 58.876L62.0207 59.0929C61.942 59.3098 61.8437 59.5267 61.765 59.7436C60.5259 59.1718 59.5622 58.4619 58.9525 57.6139V57.5153C58.1658 57.0026 57.3988 56.3913 56.7301 55.7011C56.5924 55.5631 56.4547 55.4251 56.3171 55.287V55.5237C56.1204 55.6617 55.9434 55.8195 55.7467 55.9575C54.96 54.8335 54.488 53.7489 54.37 52.7038L54.429 52.6446C53.8979 51.6192 53.4849 50.5346 53.2292 49.3712L53.1112 49.5684C52.8752 49.6078 52.6589 49.6275 52.4229 49.667C52.3835 49.2528 52.3639 48.8782 52.3835 48.5035H41.2123V50.4755H38.5768C38.6555 50.929 38.7145 51.4023 38.7145 51.8755C38.7145 52.1122 38.7145 52.3291 38.6751 52.546L38.9308 52.3291C39.0685 52.3291 39.1865 52.3685 39.3242 52.3883C39.1668 53.1376 38.9112 53.7489 38.5178 54.2024H38.3408C38.1048 54.9321 37.7704 55.6025 37.3377 56.2336L37.6721 56.1744C37.7704 56.2533 37.8688 56.3322 37.9868 56.411C37.4754 56.9829 36.9444 57.3773 36.374 57.5745L36.2364 57.4759C35.6857 57.9886 35.0366 58.4027 34.3483 58.7379L34.6629 58.8563C34.7023 58.9746 34.7613 59.0929 34.8006 59.2309C34.0729 59.4676 33.4042 59.5465 32.8338 59.4281L32.7552 59.2704C32.2438 59.3887 31.7128 59.4479 31.1818 59.4479C30.9457 59.4479 30.7294 59.4479 30.4934 59.4084L30.7097 59.6648C30.7097 59.8028 30.6704 59.9211 30.6507 60.0592C29.9034 59.9014 29.2937 59.6253 28.8413 59.2507V59.0732C28.1136 58.8365 27.4449 58.5013 26.8155 58.0478L26.8745 58.383C26.7959 58.4816 26.7172 58.5802 26.6385 58.6985C26.0682 58.1858 25.6748 57.6534 25.4781 57.0815L25.5765 56.9435C25.0651 56.3913 24.6521 55.7406 24.3177 55.0504L24.1997 55.3659C24.0817 55.4053 23.9637 55.4645 23.826 55.5039C23.59 54.7743 23.5114 54.1039 23.6294 53.532L23.7867 53.4531C23.6687 52.9404 23.6097 52.408 23.6097 51.8755C23.6097 51.6389 23.6097 51.422 23.649 51.1854L23.3934 51.4023C23.2557 51.3826 23.1377 51.3628 23 51.3431C23.1573 50.5938 23.413 49.9825 23.8064 49.5289H23.9834C24.2194 48.7993 24.5537 48.1288 24.9864 47.4978L24.6521 47.557C24.5537 47.4781 24.4554 47.3992 24.3374 47.3203C24.8488 46.7485 25.3798 46.3541 25.9502 46.1569L26.0878 46.2555C26.6582 45.7428 27.2876 45.3287 27.9759 44.9934L27.6612 44.8751C27.6219 44.7568 27.5629 44.6385 27.5236 44.5004C28.1529 44.3032 28.7233 44.2046 29.2347 44.2638L27.7202 36.3168V36.2182V36.1394V32.3532H28.684L28.6643 32.3138ZM65.7969 40.2016C64.0465 40.2016 62.473 40.9115 61.3126 42.0552C60.1719 43.1989 59.4639 44.7962 59.4639 46.5513C59.4639 48.3063 60.1719 49.8839 61.3126 51.0473C62.4534 52.1911 64.0465 52.901 65.7969 52.901C67.5473 52.901 69.1207 52.1911 70.2811 51.0473C71.4218 49.9036 72.1299 48.3063 72.1299 46.5513C72.1299 44.7962 71.4218 43.2187 70.2811 42.0552C69.1404 40.8918 67.5473 40.2016 65.7969 40.2016ZM69.5534 42.7848C68.5897 41.8186 67.272 41.227 65.7969 41.227C64.3218 41.227 63.0041 41.8186 62.0404 42.7848C61.0766 43.7511 60.4866 45.0723 60.4866 46.5513C60.4866 48.0302 61.0766 49.3514 62.0404 50.3177C63.0041 51.284 64.3218 51.8755 65.7969 51.8755C67.272 51.8755 68.5897 51.284 69.5534 50.3177C70.5171 49.3514 71.1072 48.0302 71.1072 46.5513C71.1072 45.0723 70.5171 43.7511 69.5534 42.7848ZM60.2899 34.9167V34.3054H58.0871L54.4486 36.9281L53.5636 36.0408L55.8254 34.3252H51.7148V40.1227H54.311C54.4683 39.9649 54.6453 39.8072 54.842 39.6889H54.9207C55.432 38.8804 56.0417 38.131 56.7301 37.4408C56.8678 37.3028 57.0054 37.1648 57.1431 37.0267H56.9071C56.7694 36.8295 56.6121 36.6521 56.4744 36.4549C57.5955 35.6661 58.6772 35.1928 59.7196 35.0745L59.7786 35.1337C59.9359 35.0548 60.1129 34.9562 60.2703 34.8773L60.2899 34.9167ZM71.2842 41.0692C69.8878 39.6691 67.9407 38.8015 65.8165 38.8015C63.6924 38.8015 61.7453 39.6691 60.3489 41.0692C58.9525 42.4693 58.0871 44.4216 58.0871 46.5513C58.0871 48.681 58.9525 50.6332 60.3489 52.0333C61.7453 53.4334 63.6924 54.3011 65.8165 54.3011C67.9407 54.3011 69.8878 53.4334 71.2842 52.0333C72.6806 50.6332 73.5459 48.681 73.5459 46.5513C73.5459 44.4216 72.6806 42.4693 71.2842 41.0692ZM31.2014 44.2638C31.4178 44.2638 31.6341 44.2638 31.8505 44.3032L31.6341 44.0469C31.6538 43.9088 31.6734 43.7905 31.6931 43.6525C32.4405 43.8103 33.0502 44.0863 33.5025 44.461V44.6385C33.9352 44.7765 34.3876 44.9737 34.7809 45.1906H35.253V37.4803H48.804L48.981 35.8041V34.2463H29.628V36.021L31.2014 44.2638ZM31.1818 48.6613C30.3164 48.6613 29.5297 49.0162 28.9593 49.5881C28.3889 50.1599 28.0349 50.9487 28.0349 51.8164C28.0349 52.684 28.3889 53.4728 28.9593 54.0447C29.5297 54.6166 30.3164 54.9715 31.1818 54.9715C32.0471 54.9715 32.8338 54.6166 33.4042 54.0447C33.9746 53.4728 34.3286 52.684 34.3286 51.8164C34.3286 50.9487 33.9746 50.1599 33.4042 49.5881C32.8338 49.0162 32.0471 48.6613 31.1818 48.6613ZM33.0502 49.943C32.5782 49.4698 31.9095 49.174 31.1818 49.174C30.4541 49.174 29.805 49.4698 29.3133 49.943C28.8413 50.4163 28.5463 51.0868 28.5463 51.8164C28.5463 52.546 28.8413 53.1968 29.3133 53.6897C29.7854 54.163 30.4541 54.4588 31.1818 54.4588C31.9095 54.4588 32.5782 54.163 33.0502 53.6897C33.5222 53.2165 33.8172 52.546 33.8172 51.8164C33.8172 51.0868 33.5222 50.4163 33.0502 49.943ZM33.8172 49.174C33.1485 48.5035 32.2241 48.0894 31.2014 48.0894C30.1787 48.0894 29.2543 48.5035 28.5856 49.174C27.9169 49.8444 27.5039 50.7713 27.5039 51.8164C27.5039 52.8615 27.9169 53.7686 28.5856 54.4391C29.2543 55.1096 30.1787 55.5237 31.2014 55.5237C32.2241 55.5237 33.1485 55.1096 33.8172 54.4391C34.4859 53.7686 34.8989 52.8418 34.8989 51.8164C34.8989 50.791 34.4859 49.8642 33.8172 49.174ZM58.5198 32.2743L58.7755 32.0771H59.1689V18.4904H52.1278L50.6528 32.2743H58.5198ZM61.0963 32.0771H72.7396L73.5853 32.7279L72.1495 18.4904H61.0963V32.0771Z" fill="white"/>
</svg>
