<svg width="58" height="31" viewBox="0 0 58 31" fill="none" xmlns="http://www.w3.org/2000/svg">
<g clip-path="url(#clip0_238_11)">
<path fill-rule="evenodd" clip-rule="evenodd" d="M49.838 22.4753H49.7418C49.8059 22.2666 49.838 22.0258 49.838 21.8011C49.838 21.1108 49.5654 20.5007 49.1164 20.0512C48.6674 19.6017 48.042 19.3288 47.3685 19.3288C46.6951 19.3288 46.0697 19.6017 45.6207 20.0512C45.1717 20.5007 44.8991 21.1268 44.8991 21.8011C44.8991 22.0419 44.9312 22.2666 44.9953 22.4753H41.692C41.6599 22.2506 41.6599 22.0258 41.6599 21.8011C41.6599 20.2118 42.3014 18.783 43.3276 17.7555C44.3539 16.712 45.7971 16.0699 47.3685 16.0699C48.94 16.0699 50.3832 16.712 51.4095 17.7555C52.4357 18.783 53.0771 20.2278 53.0771 21.8011C53.0771 23.3744 52.4357 24.8192 51.4095 25.8467C50.3672 26.8902 48.94 27.5163 47.3685 27.5163C45.7971 27.5163 44.4661 26.9223 43.4559 25.959H49.854V22.4753H49.838ZM48.7476 22.4753C48.8438 22.2666 48.9079 22.0419 48.9079 21.8011C48.9079 21.3676 48.7315 20.9823 48.4589 20.7094C48.1863 20.4365 47.8015 20.2599 47.3685 20.2599C46.9356 20.2599 46.5668 20.4365 46.2781 20.7094C46.0055 20.9823 45.8291 21.3676 45.8291 21.8011C45.8291 22.0419 45.8933 22.2827 45.9895 22.4753H48.7476ZM38.1963 22.4753H37.9878C37.7473 22.4753 37.4907 22.4753 37.2502 22.4914L37.5228 21.4961H38.1642C38.1642 21.5924 38.1642 21.6887 38.1642 21.769C38.1642 22.0098 38.1642 22.2345 38.1963 22.4593V22.4753ZM36.272 25.959C36.8493 25.959 37.4266 25.959 38.052 25.959C38.4208 25.959 38.7896 25.959 39.1584 25.959C39.6074 26.8259 40.1686 27.6126 40.8582 28.3029C42.5259 29.9725 44.8189 30.9999 47.3685 30.9999C49.9182 30.9999 52.2112 29.9725 53.8789 28.3029C55.5466 26.6333 56.5729 24.3376 56.5729 21.785C56.5729 19.2325 55.5466 16.9368 53.8789 15.2672C52.9809 14.3681 51.8905 13.6457 50.6718 13.1802L54.0393 13.132L57.6633 17.2257L58 16.9207L56.5568 14.015C57.1982 14.2076 57.6793 14.015 57.6793 14.015V12.2972C57.1341 12.2169 56.6049 12.3614 56.0918 12.5541L56.2842 11.0129C56.2842 11.0129 56.4927 9.1988 55.29 8.87773C54.0874 8.55665 44.4661 8.41216 44.4661 8.41216L43.8247 9.37539L42.1891 8.89378C42.1891 8.89378 38.501 11.4785 37.1219 11.8477C35.7429 12.2169 33.963 11.0129 33.963 11.0129L32.9848 12.9072L31.8302 12.4417C32.1349 11.9119 32.5999 10.9326 32.2792 10.2905C32.0547 9.85701 30.4833 8.79746 28.7354 7.85028L29.0561 7.25629L26.8753 6.10041L26.5225 6.77467C25.384 6.29305 24.4059 5.98803 23.9569 6.11646C23.2673 6.29305 22.642 7.30445 22.209 8.38006L17.9596 6.54992L19.8518 3.21071L20.8941 3.596L20.9743 3.45152C21.2148 3.62811 21.4714 3.78865 21.728 3.93314C22.0807 4.12578 22.4335 4.30237 22.8184 4.46291L22.7703 4.65556L26.9715 5.68301L27.3884 3.99735L23.1872 2.9699L23.1391 3.16255C22.8665 3.05017 22.6099 2.92174 22.3694 2.77726C22.1288 2.63277 21.8883 2.48829 21.6638 2.32775L22.5137 0.947118L21.9685 -0.0161133L19.6915 0.128371L19.6113 0.0802099L19.5792 0.128371L17.7993 0.240748L17.1098 2.18327L18.2002 2.58461C17.1098 2.9378 16.2118 3.27493 15.4741 3.64417C14.6724 3.3873 13.4697 3.45152 13.4697 3.45152V5.00874C12.0746 6.38938 12.235 7.86633 12.3633 9.18275C12.4595 10.1781 12.5557 11.0771 11.802 11.7193C8.89964 11.4303 5.4841 12.3935 5.4841 12.3935L7.00747 13.3246C5.27564 13.6457 3.72021 14.4966 2.51756 15.7006C0.962124 17.2578 3.8147e-06 19.4091 3.8147e-06 21.785C3.8147e-06 24.161 0.962124 26.3122 2.51756 27.8694C4.07299 29.4267 6.22173 30.3899 8.59497 30.3899C10.9682 30.3899 13.1169 29.4267 14.6724 27.8694C16.2278 26.3122 17.1899 24.161 17.1899 21.785C17.1899 20.6131 16.9494 19.5054 16.5325 18.494L17.8634 18.3656C17.8634 18.3656 17.7351 17.5468 17.3343 16.4873L19.0981 17.7555C19.0981 21.769 20.4612 24.45 22.8023 26.1356H36.2239L36.272 25.959ZM12.3793 11.7995C12.7962 11.3179 12.8925 10.74 12.8764 10.1139L13.4537 10.9968L12.9406 11.9119C12.7642 11.8637 12.5717 11.8316 12.3954 11.7995H12.3793ZM12.8764 9.98544C12.8764 9.71253 12.8283 9.43961 12.8123 9.15064C12.7 8.07503 12.5717 6.87099 13.4858 5.69906V6.61413L15.2657 6.6944L12.8925 9.98544H12.8764ZM15.9712 3.90103C16.5165 3.64417 17.1579 3.40336 17.8955 3.16255L16.6287 5.39404C16.5325 4.91242 16.3561 4.25421 15.9873 3.91708H15.9712V3.90103ZM8.59497 18.4779C7.68095 18.4779 6.86314 18.8472 6.2538 19.4412C5.66049 20.0352 5.29168 20.87 5.29168 21.785C5.29168 22.7001 5.66049 23.5188 6.2538 24.1289C6.84711 24.7229 7.68095 25.0921 8.59497 25.0921C9.50898 25.0921 10.3268 24.7229 10.9361 24.1289C11.5294 23.5349 11.8983 22.7001 11.8983 21.785C11.8983 20.87 11.5294 20.0512 10.9361 19.4412C10.872 19.3769 10.8239 19.3288 10.7597 19.2646L12.2671 16.5996C12.5557 16.8083 12.8283 17.0331 13.0849 17.2899C14.2234 18.4298 14.945 20.0191 14.945 21.769C14.945 23.5188 14.2394 25.1082 13.0849 26.248C11.9464 27.3878 10.3589 28.1102 8.611 28.1102C6.86315 28.1102 5.27564 27.4039 4.13713 26.248C2.99862 25.1082 2.27702 23.5188 2.27702 21.769C2.27702 20.0191 2.98258 18.4298 4.13713 17.2899C5.27564 16.1501 6.86315 15.4277 8.611 15.4277C9.34863 15.4277 10.0702 15.5561 10.7277 15.7969L9.18827 18.51C8.99585 18.4779 8.80343 18.4619 8.611 18.4619L8.59497 18.4779ZM6.87918 20.0673C7.31214 19.6338 7.92148 19.3609 8.59497 19.3609C8.62704 19.3609 8.67514 19.3609 8.70721 19.3609L6.83107 22.6519L8.3384 23.5028L10.2947 20.0512C10.7277 20.5007 11.0003 21.1108 11.0003 21.785C11.0003 22.4593 10.7277 23.0693 10.2947 23.5028C9.84573 23.9523 9.25242 24.2092 8.57893 24.2092C7.90545 24.2092 7.2961 23.9362 6.86315 23.5028C6.43019 23.0693 6.15759 22.4593 6.15759 21.785C6.15759 21.1108 6.43019 20.5007 6.86315 20.0673H6.87918Z" fill="white"/>
</g>
<defs>
<clipPath id="clip0_238_11">
<rect width="58" height="31" fill="white" transform="matrix(-1 0 0 1 58 0)"/>
</clipPath>
</defs>
</svg>
