<svg width="79" height="45" viewBox="0 0 79 45" fill="none" xmlns="http://www.w3.org/2000/svg">
<g clip-path="url(#clip0_0_240)">
<path fill-rule="evenodd" clip-rule="evenodd" d="M54.8644 6.54331H52.0388V17.5748L54.8644 16.1339V6.54331ZM32.6832 20.7874L29.6221 10.1339L27.6912 8.52756C26.1136 7.29921 24.4182 6.49606 22.5344 6.35433L7.01699 7.13386L10.9729 25.1102L12.7624 24.874C17.1186 27.5433 20.8861 26.7638 24.3475 24L25.2659 24.5669L27.338 21.7323L28.0915 22.4882L25.4072 27.0709L24.5359 26.5748L18.9082 35.2205C16.3887 36.874 13.8456 37.063 11.3261 35.6221L9.79553 30.5197L5.29806 30.0945L4.78003 30.0472L4.63875 29.5512L3.57914 26.126L3.41431 25.5827L3.88525 25.2756L6.35768 23.6457L5.03905 18.2835L4.6623 18.378L2.54307 9.77953L1.57765 9.66142L0 4.15748L3.83815 2.81102L5.88674 1.96063L6.09866 2.95276L11.7735 2.05512L11.7028 1.65354L21.0274 0.188976L21.1923 1.25197L21.3806 0.472441L24.6066 0L25.1717 1.6063C26.2548 1.58268 27.2438 1.67717 28.0915 1.93701C32.0238 4.6063 35.9326 7.27559 39.865 9.92126C39.7708 10.2283 39.7001 10.5354 39.6295 10.8425C39.0408 13.1575 38.8289 15.4961 38.9467 17.8819L31.7177 11.8583L34.1666 20.3858L34.9201 20.1969L37.3926 29.0787H52.5332V26.8583H40.6891V24.4252H42.62L40.5243 18.0945V18L40.4772 17.9055C40.3359 15.4961 40.5949 13.2756 41.113 11.2205C41.631 9.16536 42.3845 7.27559 43.2557 5.43307L43.4677 5.00787H59.7386V15.7323H77.6343V24.4252H78.9765V26.8583H63.7416V29.0787H78.9058V37.0866H78.4113L78.3171 36.9921L74.7145 33.4016C73.9374 32.6221 73.0897 32.0787 72.0537 31.7717C71.1824 31.5118 70.2641 31.4882 69.3458 31.4882H41.3955C39.8885 31.5827 38.876 31.937 37.5574 33.4252L34.4492 36.9921L34.3785 37.063H34.355L31.9061 37.0866V29.0787H34.1195L31.8826 20.9764L32.6596 20.7874H32.6832ZM9.15976 24.3071L7.37019 24.7559L5.20388 26.1969L5.93383 28.5827L9.30104 28.8898L8.26498 25.4646L9.46587 25.2992L9.15976 24.3071ZM7.06408 23.2441L8.68882 22.8425L4.59165 9.9685L4.14426 9.92126L6.12221 17.9764L5.769 18.0709L7.04054 23.2677L7.06408 23.2441ZM21.0745 1.74803L11.9383 3.18898L11.8912 2.83465L6.26349 3.70866L6.35768 4.1811L20.9803 2.14961L21.0745 1.77165V1.74803ZM50.7908 6.56693H44.4331C43.6796 8.17323 43.0438 9.8504 42.5964 11.622C42.1255 13.5118 41.89 15.5433 42.0078 17.7638L42.0548 17.9055H50.7908V6.54331V6.56693ZM37.2513 45H75.727C76.6689 44.8583 77.4459 44.4803 77.9875 43.9134C78.3407 43.5354 78.5997 43.1102 78.7645 42.6142C78.9058 42.1417 78.9529 41.6221 78.8823 41.0787C78.7645 40.1102 78.2465 39.0709 77.2811 38.1496L73.6548 34.5354C72.9955 33.874 72.3598 33.4961 71.6534 33.3071C70.9705 33.1181 70.2641 33.0709 69.3693 33.0709H42.9496C40.5714 33.0709 39.9592 33.0709 38.7347 34.4882L35.6501 38.0315C35.0379 38.8583 34.6611 39.685 34.4963 40.4882C34.3314 41.2677 34.3785 42.0236 34.5905 42.685C34.8024 43.3701 35.2027 43.9606 35.7443 44.3858C36.1446 44.6929 36.6155 44.9055 37.1335 45.0236H37.2042H37.2513V45ZM74.6674 37.3937L72.8072 35.5276C72.9013 35.7874 72.9484 36.0709 72.9484 36.3543C72.9484 37.0158 72.6894 37.6299 72.2891 38.1024C72.9013 37.6535 73.6548 37.3937 74.4554 37.3937C74.5261 37.3937 74.6203 37.3937 74.6909 37.3937H74.6674ZM71.7711 38.5276C71.3472 38.811 70.8292 39 70.2876 39C69.5577 39 68.8984 38.6929 68.4274 38.2205C67.9565 37.748 67.6504 37.0866 67.6504 36.3543C67.6504 35.6221 67.9329 34.9606 68.4274 34.4882C68.451 34.4409 68.4981 34.4173 68.5452 34.3937H66.7556C66.7556 34.3937 66.8262 34.4646 66.8498 34.4882C67.3207 34.9606 67.6268 35.6221 67.6268 36.3543C67.6268 37.0866 67.3207 37.748 66.8498 38.2205C66.3788 38.6929 65.7195 39 64.9896 39C64.2596 39 63.6003 38.6929 63.1294 38.2205C62.6584 37.748 62.3523 37.0866 62.3523 36.3543C62.3523 35.6221 62.6584 34.9606 63.1294 34.4882C63.1765 34.4409 63.2 34.4173 63.2471 34.3937H61.3162C61.3162 34.3937 61.3869 34.4646 61.434 34.4882C61.9049 34.9606 62.211 35.6221 62.211 36.3543C62.211 37.0866 61.9285 37.748 61.434 38.2205C60.963 38.6929 60.3037 39 59.5738 39C58.8438 39 58.1845 38.6929 57.7136 38.2205C57.2426 37.748 56.9365 37.0866 56.9365 36.3543C56.9365 35.6221 57.2191 34.9606 57.7136 34.4882C57.7607 34.4409 57.7842 34.4173 57.8313 34.3937H55.7827C55.7827 34.3937 55.8534 34.4646 55.9004 34.4882C56.3714 34.9606 56.6775 35.6221 56.6775 36.3543C56.6775 37.0866 56.3949 37.748 55.9004 38.2205C55.4295 38.6929 54.7702 39 54.0402 39C53.3103 39 52.651 38.6929 52.18 38.2205C51.7091 37.748 51.403 37.0866 51.403 36.3543C51.403 35.6221 51.6855 34.9606 52.18 34.4882C52.2271 34.4409 52.2507 34.4173 52.2978 34.3937H50.2727C50.2727 34.3937 50.3434 34.4646 50.3905 34.4882C50.8614 34.9606 51.1675 35.6221 51.1675 36.3543C51.1675 37.0866 50.8849 37.748 50.3905 38.2205C49.9195 38.6929 49.2602 39 48.5303 39C47.8003 39 47.141 38.6929 46.67 38.2205C46.1991 37.748 45.893 37.0866 45.893 36.3543C45.893 35.6221 46.1991 34.9606 46.67 34.4882C46.7171 34.4409 46.7407 34.4173 46.7878 34.3937H44.6921C44.6921 34.3937 44.7627 34.4646 44.8098 34.4882C45.2808 34.9606 45.5869 35.6221 45.5869 36.3543C45.5869 37.0866 45.3043 37.748 44.8098 38.2205C44.3389 38.6929 43.6796 39 42.9496 39C42.2197 39 41.5604 38.6929 41.0894 38.2205C40.6185 37.748 40.3124 37.0866 40.3124 36.3543C40.3124 35.6221 40.5949 34.9606 41.0894 34.4882C40.5714 34.5827 40.2417 34.8425 39.7943 35.3386L37.9812 37.4173C38.146 37.4173 38.2873 37.3937 38.4522 37.3937C39.4647 37.3937 40.3595 37.7953 41.0188 38.4567C41.6781 39.1181 42.0784 40.0394 42.0784 41.0315C42.0784 42.0236 41.6781 42.9449 41.0188 43.6063L40.9717 43.6535H45.6811C45.4692 43.3465 45.3514 42.9685 45.3514 42.5669C45.3514 42.0236 45.5633 41.5276 45.9165 41.1969C46.2697 40.8425 46.7642 40.6299 47.2823 40.6299C47.8003 40.6299 48.3183 40.8425 48.648 41.1969C49.0012 41.5512 49.2131 42.0472 49.2131 42.5669C49.2131 42.9685 49.0954 43.3465 48.8835 43.6535H63.2C62.9881 43.3465 62.8703 42.9685 62.8703 42.5669C62.8703 42.0236 63.0823 41.5276 63.4355 41.1969C63.7887 40.8425 64.2832 40.6299 64.8012 40.6299C65.3192 40.6299 65.8137 40.8425 66.1669 41.1969C66.5201 41.5512 66.732 42.0472 66.732 42.5669C66.732 42.9685 66.6143 43.3465 66.4024 43.6535H71.8653L71.8182 43.6063C71.1589 42.9449 70.7586 42.0236 70.7586 41.0315C70.7586 40.0394 71.1353 39.1654 71.7475 38.5276H71.7711ZM75.6092 42.2362C75.3031 42.5433 74.9028 42.7323 74.4319 42.7323C73.961 42.7323 73.5371 42.5433 73.2545 42.2362C72.9484 41.9291 72.7601 41.5039 72.7601 41.0551C72.7601 40.6063 72.9484 40.1811 73.2545 39.874C73.5607 39.5669 73.961 39.378 74.4319 39.378C74.9028 39.378 75.3031 39.5669 75.6092 39.874C75.9154 40.1811 76.1037 40.6063 76.1037 41.0551C76.1037 41.5039 75.9154 41.9291 75.6092 42.2362ZM65.2486 43.0394C65.2486 43.0394 64.966 43.2284 64.8012 43.2284C64.6364 43.2284 64.4715 43.1575 64.3538 43.0394C64.2361 42.9213 64.1654 42.7795 64.1654 42.5906C64.1654 42.4016 64.2361 42.2598 64.3538 42.1417C64.4715 42.0236 64.6128 41.9528 64.8012 41.9528C64.9896 41.9528 65.1309 42.0236 65.2486 42.1417C65.3663 42.2598 65.437 42.4252 65.437 42.5906C65.437 42.7559 65.3663 42.9213 65.2486 43.0394ZM47.6826 43.0394C47.6826 43.0394 47.4235 43.2284 47.2352 43.2284C47.0468 43.2284 46.9055 43.1575 46.7878 43.0394C46.67 42.9213 46.5994 42.7795 46.5994 42.5906C46.5994 42.4016 46.67 42.2598 46.7878 42.1417C46.9055 42.0236 47.0468 41.9528 47.2352 41.9528C47.4235 41.9528 47.5648 42.0236 47.6826 42.1417C47.8003 42.2598 47.8709 42.4252 47.8709 42.5906C47.8709 42.7559 47.8003 42.9213 47.6826 43.0394ZM43.7973 37.2992C44.0328 37.063 44.1741 36.7323 44.1741 36.3543C44.1741 35.9764 44.0328 35.6693 43.7973 35.4095C43.5619 35.1732 43.2322 35.0315 42.8554 35.0315C42.4787 35.0315 42.1726 35.1732 41.9371 35.4095C41.7016 35.6457 41.5604 35.9764 41.5604 36.3543C41.5604 36.7323 41.7016 37.0394 41.9371 37.2992C42.1726 37.5354 42.5022 37.6772 42.8554 37.6772C43.2086 37.6772 43.5383 37.5354 43.7973 37.2992ZM71.206 37.2992C71.4414 37.063 71.5827 36.7323 71.5827 36.3543C71.5827 35.9764 71.4414 35.6693 71.206 35.4095C70.9705 35.1732 70.6408 35.0315 70.2876 35.0315C69.9344 35.0315 69.6048 35.1732 69.3458 35.4095C69.1103 35.6457 68.969 35.9764 68.969 36.3543C68.969 36.7323 69.1103 37.0394 69.3458 37.2992C69.5812 37.5354 69.9109 37.6772 70.2876 37.6772C70.6644 37.6772 70.9705 37.5354 71.206 37.2992ZM65.9079 37.2992C66.1434 37.063 66.2847 36.7323 66.2847 36.3543C66.2847 35.9764 66.1434 35.6693 65.9079 35.4095C65.6724 35.1732 65.3428 35.0315 64.966 35.0315C64.5893 35.0315 64.2832 35.1732 64.0477 35.4095C63.8122 35.6457 63.6709 35.9764 63.6709 36.3543C63.6709 36.7323 63.8122 37.0394 64.0477 37.2992C64.2832 37.5354 64.6128 37.6772 64.966 37.6772C65.3192 37.6772 65.6489 37.5354 65.9079 37.2992ZM60.4686 37.2992C60.704 37.063 60.8453 36.7323 60.8453 36.3543C60.8453 35.9764 60.704 35.6693 60.4686 35.4095C60.2331 35.1732 59.9034 35.0315 59.5267 35.0315C59.1499 35.0315 58.8438 35.1732 58.6083 35.4095C58.3729 35.6457 58.2316 35.9764 58.2316 36.3543C58.2316 36.7323 58.3729 37.0394 58.6083 37.2992C58.8438 37.5354 59.1735 37.6772 59.5267 37.6772C59.8799 37.6772 60.2095 37.5354 60.4686 37.2992ZM54.9115 37.2992C55.1469 37.063 55.2882 36.7323 55.2882 36.3543C55.2882 35.9764 55.1469 35.6693 54.9115 35.4095C54.676 35.1732 54.3464 35.0315 53.9696 35.0315C53.5928 35.0315 53.2867 35.1732 53.0277 35.4095C52.7923 35.6457 52.651 35.9764 52.651 36.3543C52.651 36.7323 52.7923 37.0394 53.0277 37.2992C53.2632 37.5354 53.5928 37.6772 53.9696 37.6772C54.3464 37.6772 54.6525 37.5354 54.9115 37.2992ZM49.3779 37.2992C49.6134 37.063 49.7547 36.7323 49.7547 36.3543C49.7547 35.9764 49.6134 35.6693 49.3779 35.4095C49.1425 35.1732 48.8128 35.0315 48.4596 35.0315C48.1064 35.0315 47.7768 35.1732 47.5177 35.4095C47.2823 35.6457 47.141 35.9764 47.141 36.3543C47.141 36.7323 47.2823 37.0394 47.5177 37.2992C47.7532 37.5354 48.0829 37.6772 48.4596 37.6772C48.8364 37.6772 49.1425 37.5354 49.3779 37.2992ZM39.5118 42.2362C39.2057 42.5433 38.8054 42.7323 38.3344 42.7323C37.8635 42.7323 37.4632 42.5433 37.1571 42.2362C36.851 41.9291 36.6626 41.5039 36.6626 41.0551C36.6626 40.6063 36.851 40.1811 37.1571 39.874C37.4632 39.5669 37.8635 39.378 38.3344 39.378C38.8054 39.378 39.2057 39.5669 39.5118 39.874C39.8179 40.1811 40.0063 40.6063 40.0063 41.0551C40.0063 41.5039 39.8179 41.9291 39.5118 42.2362Z" fill="white"/>
</g>
<defs>
<clipPath id="clip0_0_240">
<rect width="79" height="45" fill="white"/>
</clipPath>
</defs>
</svg>
