<svg width="67" height="29" viewBox="0 0 67 29" fill="none" xmlns="http://www.w3.org/2000/svg">
<g clip-path="url(#clip0_0_112)">
<path fill-rule="evenodd" clip-rule="evenodd" d="M65.988 21.6302C66.3184 18.9786 66.6695 16.3062 67 13.6546C66.463 13.1536 65.926 12.6316 65.389 12.1305C64.0465 8.10101 61.9192 4.4473 59.2136 1.08589C49.9608 -0.292081 40.5222 -0.187689 31.0009 0.480418C25.4451 2.48474 20.4883 5.11541 16.5435 8.76911C11.8138 10.0636 7.1048 11.358 2.39581 12.6525C-0.454384 16.2018 -0.74353 20.1687 1.38378 24.1982L6.34063 24.8246C6.11344 24.0938 5.98951 23.3213 5.98951 22.5071C5.98951 20.4192 6.83631 18.5193 8.19944 17.1413C9.56258 15.7634 11.442 14.9073 13.5074 14.9073C15.5728 14.9073 17.4729 15.7634 18.8153 17.1413C20.1785 18.5193 21.0253 20.4192 21.0253 22.5071C21.0253 23.6554 20.7774 24.741 20.3231 25.7223H50.6631C50.2087 24.741 49.9608 23.6554 49.9608 22.5071C49.9608 20.4192 50.8076 18.5193 52.1708 17.1413C53.5339 15.7634 55.4134 14.9073 57.4787 14.9073C59.5441 14.9073 61.4442 15.7634 62.7867 17.1413C64.1498 18.5193 64.976 20.4192 64.976 22.5071C64.976 22.6114 64.976 22.695 64.976 22.7994L65.988 21.6302ZM57.4581 16.0139C59.2343 16.0139 60.8453 16.7446 62.0018 17.9138C63.1584 19.083 63.8813 20.7115 63.8813 22.5071C63.8813 24.3026 63.1584 25.9311 62.0018 27.1003C60.8453 28.2695 59.2343 29.0002 57.4581 29.0002C55.6819 29.0002 54.0916 28.2695 52.9143 27.1003C51.7577 25.9311 51.0348 24.3026 51.0348 22.5071C51.0348 20.7115 51.7577 19.083 52.9143 17.9138C54.0709 16.7446 55.6819 16.0139 57.4581 16.0139ZM13.4248 16.0139C15.201 16.0139 16.812 16.7446 17.9686 17.9138C19.1252 19.083 19.848 20.7115 19.848 22.5071C19.848 24.3026 19.1252 25.9311 17.9686 27.1003C16.812 28.2695 15.201 29.0002 13.4248 29.0002C11.6486 29.0002 10.0376 28.2695 8.88101 27.1003C7.72441 25.9311 7.00154 24.3026 7.00154 22.5071C7.00154 20.7115 7.72441 19.083 8.88101 17.9138C10.0376 16.7446 11.6486 16.0139 13.4248 16.0139ZM12.4747 21.7346C12.2888 21.9225 12.1649 22.1521 12.1236 22.4235C11.5866 22.4235 10.8018 22.2565 10.5539 22.1939C10.1822 22.1104 9.81042 21.9851 9.43865 21.8807C9.56257 21.0038 9.97565 20.2313 10.5746 19.6258C10.9051 19.8973 11.2149 20.2104 11.504 20.5236C11.6692 20.6906 12.2062 21.2752 12.4541 21.7346H12.4747ZM13.0943 23.9477C13.1976 23.9685 13.3009 23.9894 13.4248 23.9894C13.59 23.9894 13.7552 23.9477 13.8998 23.9059C14.189 24.3652 14.4161 25.1377 14.4781 25.3674C14.5607 25.7014 14.664 26.0355 14.726 26.3695C14.3129 26.5157 13.8792 26.5783 13.4248 26.5783C13.0324 26.5783 12.6399 26.5157 12.2888 26.4113C12.3715 26.0564 12.4541 25.7014 12.5573 25.3674C12.6193 25.1377 12.8465 24.407 13.0943 23.9477ZM14.6846 22.2774C14.602 22.0269 14.4575 21.7972 14.2509 21.6302C14.4988 21.15 15.0771 20.5445 15.2423 20.3566C15.5314 20.0643 15.8412 19.7511 16.151 19.4797C16.1924 19.5215 16.2543 19.5841 16.2956 19.6258C16.8533 20.1896 17.2457 20.8994 17.3903 21.7137C16.9978 21.8389 16.5848 21.9642 16.1924 22.0477C15.9652 22.1104 15.201 22.2774 14.6846 22.2774ZM13.3422 21.1917C12.9291 20.4401 12.1856 19.605 11.4834 18.9369C12.0617 18.6028 12.7226 18.4358 13.4454 18.4358C14.0857 18.4358 14.6846 18.5819 15.2216 18.8533C14.4988 19.5423 13.7346 20.4192 13.3422 21.2126V21.1917ZM9.43865 23.0081C10.3681 23.2796 11.4214 23.4675 12.2475 23.4257C11.8345 24.1147 11.5247 25.0542 11.2975 25.952C11.0496 25.785 10.8018 25.597 10.5953 25.3883C9.97565 24.7619 9.56257 23.9477 9.43865 23.029V23.0081ZM15.738 25.8476C15.5108 24.9289 15.1597 23.9477 14.726 23.2796C15.5521 23.2796 16.5641 23.0708 17.4729 22.8202C17.3903 23.8224 16.9565 24.7202 16.2956 25.3883C16.1304 25.5553 15.9445 25.7223 15.738 25.8685V25.8476ZM56.5287 21.7137C56.3428 21.9016 56.2189 22.1312 56.1776 22.4027C55.6406 22.4027 54.8351 22.2356 54.6079 22.173C54.2361 22.0895 53.8437 21.9642 53.4926 21.8598C53.6165 20.9829 54.0296 20.2104 54.6285 19.605C54.959 19.8764 55.2688 20.1896 55.558 20.5027C55.7232 20.6698 56.2602 21.2544 56.508 21.7137H56.5287ZM57.1483 23.9268C57.1483 23.9268 57.3548 23.9685 57.4787 23.9685C57.644 23.9685 57.8092 23.9268 57.9538 23.885C58.2223 24.3443 58.4701 25.1168 58.5321 25.3465C58.6353 25.6806 58.7179 26.0146 58.7799 26.3487C58.3668 26.4948 57.9331 26.5575 57.4787 26.5575C57.0863 26.5575 56.6939 26.4948 56.3428 26.3904C56.4254 26.0355 56.508 25.6806 56.6113 25.3465C56.6732 25.1168 56.9004 24.3861 57.1483 23.9268ZM58.7386 22.2565C58.656 22.006 58.5114 21.7763 58.3049 21.6093C58.5527 21.1291 59.1104 20.5236 59.2962 20.3357C59.5854 20.0434 59.8745 19.7302 60.205 19.4588C60.2463 19.5006 60.3083 19.5632 60.3496 19.605C60.9072 20.1687 61.2996 20.8785 61.4442 21.6928C61.0518 21.8181 60.6387 21.9433 60.2463 22.0269C60.0191 22.0895 59.2549 22.2565 58.7386 22.2565ZM57.3961 21.1708C56.983 20.4192 56.2395 19.5841 55.5373 18.916C56.1156 18.5819 56.7765 18.4149 57.4787 18.4149C58.119 18.4149 58.7179 18.5611 59.2549 18.8325C58.5321 19.5215 57.7679 20.3983 57.3755 21.1917L57.3961 21.1708ZM53.4926 22.9873C54.422 23.2587 55.4753 23.4466 56.3015 23.4048C55.8884 24.0938 55.5786 25.0333 55.3514 25.9311C55.0829 25.7641 54.8557 25.5762 54.6492 25.3674C54.0296 24.741 53.6165 23.9268 53.4926 23.0081V22.9873ZM59.7919 25.8267C59.5441 24.9081 59.2136 23.9268 58.7799 23.2587C59.606 23.2587 60.6181 23.0499 61.5268 22.7994C61.4442 23.8015 61.0105 24.6993 60.3496 25.3674C60.1843 25.5344 59.9985 25.7014 59.7919 25.8476V25.8267ZM28.6671 10.2306C28.3779 9.33283 28.0681 8.43506 27.7583 7.53729C25.569 7.59993 23.9581 8.3933 22.6569 9.56249L22.8634 10.0009L21.4797 10.6482L20.1991 9.43722C23.6483 6.34723 28.2953 4.05061 31.6412 2.33859C35.7719 2.10893 39.7167 2.02541 43.6409 2.06717L43.3517 6.1802L43.0419 10.6273L24.9907 10.9822C24.557 12.9865 24.3505 15.0117 24.3711 17.0369C24.3918 19.1874 24.681 21.3587 25.2592 23.551H42.6908C43.0419 22.2148 43.3517 20.8577 43.5789 19.4379C43.8268 17.9347 43.992 16.3897 44.0333 14.7821V11.3998H44.6942V14.803C44.6529 16.4523 44.4877 18.0391 44.2398 19.5632C43.992 21.0873 43.6615 22.5488 43.2691 23.9894L43.2071 24.24H24.7429L24.681 23.9894C24.0613 21.651 23.7309 19.3544 23.7102 17.0578C23.6896 15.0326 23.8961 13.0074 24.3092 11.0031H23.1526L24.9288 10.3141L28.6877 10.2515L28.6671 10.2306ZM42.5669 13.0283V13.8008H39.1797V13.0283H42.5669ZM45.3758 2.10893C47.8955 2.17156 50.4152 2.27595 52.9763 2.46386C54.5459 4.40554 55.496 6.51426 56.3428 8.62297C55.8884 9.22844 55.434 9.81303 54.9797 10.4185L45.7269 10.6064L45.3758 2.12981V2.10893ZM2.51973 14.2601L8.28205 13.0492C8.28205 13.0492 5.61776 17.0787 4.37854 17.1413C3.13933 17.1831 2.31319 16.5567 2.31319 16.5567H1.38378L2.51973 14.2601ZM63.9846 9.91742H61.1344C60.7833 6.91094 60.5561 5.61649 59.73 2.81879C59.8126 2.81879 59.9158 2.81879 59.9985 2.79791C61.816 5.32419 62.5801 6.78567 63.9846 9.91742Z" fill="white"/>
</g>
<defs>
<clipPath id="clip0_0_112">
<rect width="67" height="29" fill="white" transform="matrix(-1 0 0 1 67 0)"/>
</clipPath>
</defs>
</svg>
