<svg width="47" height="50" viewBox="0 0 47 50" fill="none" xmlns="http://www.w3.org/2000/svg">
<g clip-path="url(#clip0_0_246)">
<path d="M0.196836 13.0259C0.389748 12.4283 0.734444 11.8685 1.19567 11.4008C1.67061 10.9398 1.95263 10.7471 2.23955 10.4604C2.79576 9.9258 3.07387 9.42897 3.06603 9.00866V6.36475H5.78736V9.00866C5.78736 10.3868 4.955 11.4899 4.2049 12.2036C3.84062 12.561 3.37646 12.9213 3.20117 13.1033C3.02295 13.2854 2.87998 13.5082 2.80164 13.7551C2.63908 14.2519 2.72917 14.802 3.02588 15.1575C3.38037 15.602 3.94442 15.8073 4.47713 15.7424C4.99711 15.6979 5.52493 15.3647 5.7619 15.0064C5.93229 14.7342 6.14773 14.3604 6.41996 14.0902C6.68925 13.8123 6.99282 13.6418 7.24057 13.5566C7.7439 13.389 8.04257 13.4733 8.12091 13.6205C8.20807 13.7803 8.06216 14.0156 7.90254 14.3226C7.71648 14.6616 7.69886 14.9037 7.5647 15.6291C7.34633 16.5782 6.49144 17.5961 5.08035 17.997C3.70548 18.4251 1.83512 17.9495 0.838244 16.6566C-0.0176188 15.5933 -0.191925 14.2113 0.196836 13.0259Z" fill="white"/>
<path d="M2.25746 15.7754C1.90982 15.356 1.73062 14.8176 1.73062 14.2626C1.73062 13.9934 1.77273 13.7203 1.8589 13.4559C1.97935 13.0792 2.19772 12.7218 2.48856 12.4245C2.60019 12.3083 2.74904 12.1814 2.93608 12.0216C3.12409 11.8608 3.33463 11.6797 3.50894 11.5074H3.51089L3.51775 11.4986C4.11117 10.936 4.79861 10.045 4.79665 9.01355V9.00484C4.79665 8.99515 4.79665 8.97578 4.81036 8.94092L4.97291 9.00968L5.14526 9.00677V9.01065V9.01355C5.14526 9.01355 5.14526 9.01743 5.14526 9.02033C5.13841 10.2057 4.37949 11.1558 3.76158 11.7456L3.75375 11.7533L3.75179 11.7553C3.56769 11.9364 3.35128 12.1214 3.16326 12.2821C2.9772 12.4419 2.8313 12.5669 2.73925 12.6637C2.48366 12.9252 2.29271 13.239 2.18989 13.5615C2.11449 13.792 2.07728 14.0292 2.07728 14.2626C2.07728 14.7401 2.232 15.1991 2.5199 15.5497L2.52577 15.5575C2.52675 15.5585 2.52773 15.5604 2.52871 15.5614C2.94587 16.0785 3.60196 16.3884 4.2796 16.3884C4.36578 16.3884 4.45293 16.3836 4.54204 16.3729C5.2236 16.3129 5.94237 15.8926 6.29196 15.356L6.29686 15.3473L6.30077 15.3415L6.37226 15.2263C6.48585 15.0442 6.61217 14.8369 6.75514 14.6636C6.75514 14.6636 6.39576 16.3768 4.5773 16.7167C4.47839 16.7284 4.37851 16.7332 4.27863 16.7342C3.49327 16.7342 2.74023 16.3778 2.25452 15.7764L2.25746 15.7754Z" fill="#494949"/>
<path d="M4.41739 9.58674C3.34119 9.58674 2.46477 8.71996 2.46477 7.65562V1.09619H6.37001V7.65658C6.37001 8.72093 5.49358 9.58771 4.41739 9.58771V9.58674Z" fill="#494949"/>
<path d="M3.0468 1.67139V7.65651C3.0468 8.40514 3.66079 9.01236 4.41775 9.01236C5.17471 9.01236 5.78869 8.40514 5.78869 7.65651V1.67139H3.0468Z" fill="white"/>
<path d="M4.99906 7.40095C4.99906 7.71861 4.73858 7.97622 4.41738 7.97622C4.09619 7.97622 3.83571 7.71861 3.83571 7.40095C3.83571 7.0833 4.09619 6.82568 4.41738 6.82568C4.73858 6.82568 4.99906 7.0833 4.99906 7.40095Z" fill="#494949"/>
<path d="M26.3591 7.92189L23.6309 8.4895L26.6039 22.4665L29.3321 21.8989L26.3591 7.92189Z" fill="white"/>
<path d="M25.3893 10.244L24.7108 10.385L27.2505 22.3353L27.929 22.1943L25.3893 10.244Z" fill="#494949"/>
<path d="M34.6147 41.2518C34.6813 41.5656 34.4453 41.8804 34.0878 41.955L30.4147 42.7191C30.0563 42.7936 29.7126 42.599 29.645 42.2852L25.728 23.863C25.6614 23.5492 25.8974 23.2345 26.2548 23.1599L29.928 22.3958C30.2854 22.3212 30.6301 22.5159 30.6967 22.8297L34.6127 41.2528L34.6147 41.2518Z" fill="white"/>
<path d="M26.3704 24.5805C26.344 24.4566 26.4243 24.3346 26.5506 24.3084L30.2237 23.5443C30.3501 23.5181 30.4734 23.5976 30.4999 23.7225C30.5263 23.8464 30.446 23.9685 30.3197 23.9946L26.6465 24.7587C26.6319 24.7616 26.6181 24.7636 26.6035 24.7636C26.4938 24.7655 26.3949 24.6909 26.3714 24.5805H26.3704Z" fill="#494949"/>
<path d="M47 47.6978C47 46.2994 45.8543 45.1663 44.4403 45.1663H24.6614C23.2474 45.1663 22.1016 46.2994 22.1016 47.6978V49.9989H47V47.6978Z" fill="white"/>
<path d="M44.441 46.2026H24.6621C23.8924 46.2026 23.2657 46.8225 23.2657 47.5837V48.3894C23.2657 47.6282 23.8924 47.0084 24.6621 47.0084H44.441C45.2107 47.0084 45.8374 47.6282 45.8374 48.3894V47.5837C45.8374 46.8225 45.2107 46.2026 44.441 46.2026Z" fill="#494949"/>
<path d="M31.9935 14.3604C28.8384 14.3604 26.1092 13.8965 24.7314 13.5004C22.6838 12.9106 16.066 10.3471 7.68857 7.10177C6.38421 6.59623 5.04167 6.07616 3.67072 5.54641C2.09511 4.93724 1.22847 3.27245 1.73768 1.83428C2.14407 0.685674 3.17816 0 4.5021 0C4.71166 0 4.92611 0.0174324 5.14057 0.0522972C5.26493 0.072635 5.73106 0.142365 6.43807 0.247927C26.3374 3.22596 37.2178 5.16483 38.7758 6.00837C40.3964 6.88677 41.2102 8.38402 41.0075 10.1176C40.8146 11.7649 39.6982 13.2293 38.3528 13.5982C36.5098 14.1047 34.3702 14.3604 31.9945 14.3604H31.9935Z" fill="#494949"/>
<path d="M38.4965 6.51283C41.8191 8.31321 40.36 12.4495 38.1969 13.0432C33.4456 14.3477 27.4408 13.6804 24.8938 12.9473C22.5524 12.2733 13.9615 8.90881 3.88107 5.00977C2.58161 4.50713 1.88243 3.16193 2.28588 2.02302C2.70304 0.847297 3.86051 0.426983 5.04638 0.618739C6.23225 0.810496 35.9661 5.14148 38.4955 6.51186L38.4965 6.51283Z" fill="white"/>
<path d="M8.14094 3.53091C20.5343 7.13942 25.1887 7.77183 31.1592 7.25467C32.2236 7.16266 32.4802 6.44406 31.5058 6.27748C25.9447 5.32742 20.7135 4.49357 8.27902 2.51596C7.37321 2.37166 7.33012 3.29461 8.14094 3.53091Z" fill="#494949"/>
<path d="M40.6009 45.1664H28.0352V44.5911C28.0352 39.6122 29.1339 34.9064 30.2972 29.9256C31.6368 24.1894 33.1547 17.6881 33.1547 9.7263C33.1547 7.69639 34.8253 6.04419 36.8778 6.04419C38.9303 6.04419 40.6009 7.69543 40.6009 9.7263V45.1673V45.1664Z" fill="#494949"/>
<path d="M36.8781 6.61938C35.1429 6.61938 33.7367 8.0101 33.7367 9.72623C33.7367 24.5699 28.6172 33.8904 28.6172 44.591H40.0196V9.72623C40.0196 8.0101 38.6134 6.61938 36.8781 6.61938Z" fill="white"/>
<path d="M36.0381 42.9418H38.3648V15.94C38.3648 14.9047 37.2592 14.8853 37.2592 15.94C37.2592 17.7811 36.0371 42.9418 36.0371 42.9418H36.0381Z" fill="#494949"/>
<path d="M32.2241 43.0959C31.3261 43.0959 30.5956 42.3734 30.5956 41.4853C30.5956 40.5972 31.3261 39.8748 32.2241 39.8748C33.1221 39.8748 33.8526 40.5972 33.8526 41.4853C33.8526 42.3734 33.1221 43.0959 32.2241 43.0959Z" fill="#494949"/>
<path d="M33.2713 41.4843C33.2713 42.0566 32.8022 42.5196 32.2245 42.5196C31.6467 42.5196 31.1777 42.0557 31.1777 41.4843C31.1777 40.9129 31.6467 40.449 32.2245 40.449C32.8022 40.449 33.2713 40.9129 33.2713 41.4843Z" fill="white"/>
<path d="M36.8772 11.9122C35.658 11.9122 34.666 10.9311 34.666 9.72537C34.666 8.51963 35.658 7.53857 36.8772 7.53857C38.0963 7.53857 39.0883 8.51963 39.0883 9.72537C39.0883 10.9311 38.0963 11.9122 36.8772 11.9122Z" fill="#494949"/>
<path d="M36.8785 11.3368C35.9805 11.3368 35.25 10.6144 35.25 9.72628C35.25 8.8382 35.9805 8.11572 36.8785 8.11572C37.7765 8.11572 38.507 8.8382 38.507 9.72628C38.507 10.6144 37.7765 11.3368 36.8785 11.3368Z" fill="white"/>
<path d="M37.9257 9.72645C37.9257 10.2988 37.4566 10.7617 36.8788 10.7617C36.3011 10.7617 35.832 10.2978 35.832 9.72645C35.832 9.15506 36.3011 8.69116 36.8788 8.69116C37.4566 8.69116 37.9257 9.15506 37.9257 9.72645Z" fill="#494949"/>
<path d="M4.41739 3.85747C3.77598 3.85747 3.25404 3.34128 3.25404 2.70693C3.25404 2.07259 3.77598 1.5564 4.41739 1.5564C5.0588 1.5564 5.58172 2.07259 5.58172 2.70693C5.58172 3.34128 5.05978 3.85747 4.41739 3.85747Z" fill="#494949"/>
<path d="M4.41709 3.39739C4.03225 3.39739 3.71889 3.08748 3.71889 2.70687C3.71889 2.32627 4.03225 2.01636 4.41709 2.01636C4.80194 2.01636 5.1153 2.32627 5.1153 2.70687C5.1153 3.08748 4.80194 3.39739 4.41709 3.39739Z" fill="white"/>
<path d="M25.7086 11.912C24.8106 11.912 24.0801 11.1896 24.0801 10.3015C24.0801 9.41339 24.8106 8.69092 25.7086 8.69092C26.6065 8.69092 27.3371 9.41339 27.3371 10.3015C27.3371 11.1896 26.6065 11.912 25.7086 11.912Z" fill="#494949"/>
<path d="M26.7256 10.5388C26.8584 9.98234 26.5099 9.42475 25.9472 9.2934C25.3845 9.16206 24.8207 9.50671 24.6879 10.0632C24.5551 10.6197 24.9036 11.1773 25.4663 11.3086C26.029 11.44 26.5928 11.0953 26.7256 10.5388Z" fill="white"/>
</g>
<defs>
<clipPath id="clip0_0_246">
<rect width="47" height="50" fill="white"/>
</clipPath>
</defs>
</svg>
