<svg width="78" height="46" viewBox="0 0 78 46" fill="none" xmlns="http://www.w3.org/2000/svg">
<g clip-path="url(#clip0_238_36)">
<path d="M74.0271 41.4754C73.5255 41.553 72.9623 41.5996 72.3296 41.5996H71.2957C71.2957 40.6915 70.5627 39.9542 69.66 39.9542C68.7573 39.9542 68.032 40.6915 68.032 41.5996H65.293C65.293 39.1781 67.2527 37.2068 69.66 37.2068C72.0673 37.2068 73.9653 39.1083 74.0271 41.4754Z" fill="white"/>
<path d="M74.0349 41.5995C74.0349 44.021 72.0828 45.9923 69.6678 45.9923C67.2528 45.9923 65.3008 44.021 65.3008 41.5995H68.0398C68.0398 42.4998 68.7728 43.2371 69.6678 43.2371C70.5628 43.2371 71.3035 42.4998 71.3035 41.5995H72.3374C72.9701 41.5995 73.5334 41.553 74.0349 41.4753C74.0349 41.5141 74.0349 41.5607 74.0349 41.5995Z" fill="white"/>
<path d="M51.5349 41.5996H48.7958C48.7958 40.6915 48.0628 39.9542 47.1678 39.9542C46.2728 39.9542 45.5398 40.6915 45.5398 41.5996H42.8008C42.8008 39.1781 44.7605 37.2068 47.1678 37.2068C49.5751 37.2068 51.5349 39.1781 51.5349 41.5996Z" fill="white"/>
<path d="M48.7958 41.5994H51.5349C51.5349 44.0208 49.5751 45.9921 47.1678 45.9921C44.7605 45.9921 42.8008 44.0208 42.8008 41.5994H45.5398C45.5398 42.4997 46.2651 43.237 47.1678 43.237C48.0706 43.237 48.7958 42.4997 48.7958 41.5994Z" fill="white"/>
<path d="M47.7478 22.5538L42.9023 25.3478C42.9023 24.9985 42.9023 24.6493 42.9023 24.2922L47.4391 21.6768L47.7478 22.546V22.5538Z" fill="white"/>
<path d="M48.2399 22.2743L47.7461 22.5537L47.4375 21.6845L47.7924 21.4827L48.2399 22.2743Z" fill="white"/>
<path d="M47.4379 21.6846L47.0058 20.4583C46.8284 19.9771 47.083 19.4416 47.5614 19.2709C47.6694 19.2321 47.7697 19.2166 47.8777 19.2166C48.2558 19.2166 48.6107 19.4571 48.7419 19.8297L49.8452 22.9108C50.0149 23.3998 49.768 23.9275 49.2819 24.0983C49.1816 24.1371 49.0736 24.1526 48.9733 24.1526C48.5953 24.1526 48.2403 23.912 48.1015 23.5317L47.7465 22.5461L48.2403 22.2589L47.7928 21.4673L47.4379 21.6691V21.6846Z" fill="white"/>
<path d="M42.9021 24.2999L40.8498 25.4874H40.4948C39.7078 4.31509 50.3168 2.42139 50.3168 2.42139H65.9718C69.1507 2.42139 68.9192 5.84403 68.9192 5.84403V17.6409H65.9718V5.16105H50.9958C44.3141 5.16105 42.9947 16.2905 42.9021 24.2999Z" fill="white"/>
<path d="M76.7803 26.4575C76.7803 25.8521 76.1322 25.3632 75.3298 25.3632H62.5218C62.1206 25.3632 61.758 25.4873 61.4956 25.6814C61.2333 25.8832 61.0713 26.1548 61.0713 26.4575C61.0713 27.0628 61.7194 27.5518 62.5218 27.5518H75.3298C76.1322 27.5518 76.7803 27.0628 76.7803 26.4575ZM47.1677 36.2442C44.2281 36.2442 41.8439 38.6424 41.8439 41.5994H41.0801C41.0801 41.5994 38.9043 40.7689 38.9043 38.0293V37.0436H41.8439V35.3983H38.9043V35.2818C38.9043 32.5422 41.0801 32.3171 41.0801 32.3171H51.4499L62.3444 17.6409H74.1416C74.1416 17.6409 77.9994 17.7107 77.9994 21.3584V37.7964C77.9994 37.7964 78.1537 40.3421 74.9748 41.2656C74.8051 38.4561 72.4904 36.2442 69.6588 36.2442C66.8271 36.2442 64.335 38.6424 64.335 41.5994H52.4915C52.4915 38.6424 50.0997 36.2442 47.1677 36.2442ZM76.4099 22.7787C76.4099 22.1733 75.9239 21.6844 75.322 21.6844H65.7007C65.3997 21.6844 65.1297 21.8086 64.9291 22.0026C64.7362 22.2044 64.6128 22.476 64.6128 22.7787C64.6128 23.3841 65.0988 23.873 65.7007 23.873H75.322C75.9316 23.873 76.4099 23.3841 76.4099 22.7787Z" fill="white"/>
<path d="M41.8439 35.406V37.0514H38.9043V35.406H41.8439Z" fill="white"/>
<path d="M41.3049 26.2791L40.8574 25.4875L42.9098 24.3C42.9098 24.6571 42.9098 25.0063 42.9098 25.3556L41.3126 26.2791H41.3049Z" fill="white"/>
<path d="M40.7798 29.6241C40.641 28.1727 40.5484 26.799 40.5021 25.5029H40.857L41.3045 26.279L42.9016 25.3555C42.9016 26.9931 42.9556 28.4599 43.0174 29.6241H40.7798Z" fill="white"/>
<path d="M38.904 35.406V37.0514H37.0137V35.406H38.904Z" fill="white"/>
<path d="M37.0228 37.0437V40.8777H35.5723V38.9452V34.6533V0H37.0228V35.4061V37.0437Z" fill="white"/>
<path d="M35.5718 34.6533V38.9452L22 36.6634V34.6533H35.5718Z" fill="white"/>
</g>
<mask id="mask0_238_36" style="mask-type:alpha" maskUnits="userSpaceOnUse" x="0" y="0" width="37" height="37">
<rect width="37" height="37" fill="#D9D9D9"/>
</mask>
<g mask="url(#mask0_238_36)">
<path d="M11.8293 32.4045L18.0553 21.5832L6.16666 20.1898L23.5104 4.59521H25.23L18.8558 15.4462L30.8333 16.81L13.4896 32.4045H11.8293ZM16.2053 27.7765L27.2727 17.9573L16.3713 16.7358L20.8451 9.17281L9.72733 19.0216L20.5901 20.3232L16.2053 27.7765Z" fill="white"/>
</g>
<defs>
<clipPath id="clip0_238_36">
<rect width="56" height="46" fill="white" transform="translate(22)"/>
</clipPath>
</defs>
</svg>
