<svg width="93" height="27" viewBox="0 0 93 27" fill="none" xmlns="http://www.w3.org/2000/svg">
<g clip-path="url(#clip0_0_379)">
<path d="M17 0H93V16H17V0Z" fill="white" stroke="white" stroke-miterlimit="10"/>
<path d="M0.42511 11.9481L4.2428 3.9242C4.27614 3.85726 4.34283 3.81543 4.40952 3.81543H14.4205C14.4205 3.81543 14.4622 3.83216 14.4622 3.85726L14.7373 18.5746C14.7373 18.6332 14.7873 18.6834 14.8457 18.6834L32.9755 18.6667C31.4418 20.0807 31.2001 20.976 30.6749 23.076H14.5706L14.4872 22.4485C14.3789 21.6202 14.1871 20.8086 13.8454 20.0472C13.4036 19.0599 12.8201 18.3153 11.8198 17.7714L11.253 17.487C11.0196 17.3698 10.7779 17.2778 10.5362 17.1774C9.81096 16.8176 9.00242 16.6084 8.11051 16.5833C7.74375 16.575 7.39365 16.6084 7.05189 16.6503C6.9852 16.6503 6.91852 16.6335 6.8435 16.6335C5.41812 16.6335 4.37617 17.2276 3.70932 18.0894C3.5176 18.2316 3.32589 18.3738 3.12584 18.5328C1.98386 19.4448 1.72546 20.9425 2.04221 22.3147C2.0172 22.5489 2.0172 22.7748 2.04221 23.0007C2.04221 23.0258 2.04221 23.0426 2.04221 23.0677H1.01694C0.908573 23.0677 0.791874 22.9087 0.716854 22.8334L0.55014 22.5489C0.408436 22.4151 0.408436 22.0302 0.408436 21.8294V11.9815C0.408436 11.9815 0.40844 11.9564 0.416775 11.9397L0.42511 11.9481ZM2.33396 12.8935C2.33396 12.8935 2.35062 12.927 2.36729 12.927H13.3202C13.3202 12.927 13.3536 12.9103 13.3536 12.8935V5.10393C13.3536 5.10393 13.3369 5.07047 13.3202 5.07047H5.26808C5.26808 5.07047 5.24307 5.07047 5.23474 5.0872L2.15891 11.5548V11.5716L2.33396 12.8852V12.8935Z" fill="white" stroke="white" stroke-miterlimit="10"/>
<path d="M33.7757 21.9965C33.7757 24.2807 35.6179 26.1298 37.8935 26.1298C40.1691 26.1298 42.0113 24.2807 42.0113 21.9965C42.0113 19.7124 40.1691 17.8633 37.8935 17.8633C35.6179 17.8633 33.7757 19.7124 33.7757 21.9965ZM37.8935 19.0765C39.5023 19.0765 40.8026 20.3817 40.8026 21.9965C40.8026 23.6113 39.5023 24.9166 37.8935 24.9166C36.2848 24.9166 34.9844 23.6113 34.9844 21.9965C34.9844 20.3817 36.2848 19.0765 37.8935 19.0765Z" fill="white" stroke="white" stroke-miterlimit="10"/>
<path d="M84.4816 18.6833H91V23.076H84.9984C85.5652 21.6536 85.2909 19.9049 84.3907 18.6833H84.4816Z" fill="white" stroke="white" stroke-miterlimit="10"/>
<path d="M43.5 23C44.0883 21.424 43.5034 19.7961 42.4281 18.6833H53.5727C52.6558 19.8882 52.4558 21.6369 52.9726 23.076H43.4648L43.5 23Z" fill="white" stroke="white" stroke-miterlimit="10"/>
<path d="M33.4006 18.6833C32.6171 19.5619 32.267 20.7834 32.3504 21.9715C32.3087 22.3397 32.317 22.7162 32.367 23.0843H30.6832V18.6917L33.1061 18.6917L33.4006 18.6833Z" fill="white" stroke="white" stroke-miterlimit="10"/>
<path d="M14.5872 15.3616V23.0759H13.2119C13.4953 21.5112 13.0952 19.9132 11.8949 18.7C10.8279 17.629 9.36918 16.8676 7.86877 16.876C4.05108 16.8843 2.28394 19.9885 2.06721 23.0759H1.60042V15.3616H14.5956H14.5872Z" fill="white" stroke="white" stroke-miterlimit="10"/>
<path d="M3.64266 22.4484C3.64266 24.7326 5.48482 26.5817 7.76043 26.5817C10.036 26.5817 11.8782 24.7326 11.8782 22.4484C11.8782 20.1643 10.036 18.3152 7.76043 18.3152C5.48482 18.3152 3.64266 20.1643 3.64266 22.4484ZM7.76043 19.5284C9.36919 19.5284 10.6695 20.8336 10.6695 22.4484C10.6695 24.0632 9.36919 25.3685 7.76043 25.3685C6.15166 25.3685 4.85132 24.0632 4.85132 22.4484C4.85132 20.8336 6.15166 19.5284 7.76043 19.5284Z" fill="white" stroke="white" stroke-miterlimit="10"/>
<path d="M74.7644 21.9631C74.7644 24.2473 76.6066 26.0963 78.8822 26.0963C81.1578 26.0963 82.9999 24.2473 82.9999 21.9631C82.9999 19.6789 81.1578 17.8298 78.8822 17.8298C76.6066 17.8298 74.7644 19.6789 74.7644 21.9631ZM78.8822 19.043C80.4909 19.043 81.7913 20.3483 81.7913 21.9631C81.7913 23.5779 80.4909 24.8831 78.8822 24.8831C77.2734 24.8831 75.9731 23.5779 75.9731 21.9631C75.9731 20.3483 77.2734 19.043 78.8822 19.043Z" fill="white" stroke="white" stroke-miterlimit="10"/>
<path d="M64.7645 21.9631C64.7645 24.2473 66.6066 26.0963 68.8822 26.0963C71.1578 26.0963 73 24.2473 73 21.9631C73 19.6789 71.1578 17.8298 68.8822 17.8298C66.6066 17.8298 64.7645 19.6789 64.7645 21.9631ZM68.8822 19.043C70.491 19.043 71.7913 20.3483 71.7913 21.9631C71.7913 23.5779 70.491 24.8831 68.8822 24.8831C67.2735 24.8831 65.9731 23.5779 65.9731 21.9631C65.9731 20.3483 67.2735 19.043 68.8822 19.043Z" fill="white" stroke="white" stroke-miterlimit="10"/>
<path d="M54.7645 21.9631C54.7645 24.2473 56.6066 26.0963 58.8822 26.0963C61.1578 26.0963 63 24.2473 63 21.9631C63 19.6789 61.1578 17.8298 58.8822 17.8298C56.6066 17.8298 54.7645 19.6789 54.7645 21.9631ZM58.8822 19.043C60.491 19.043 61.7913 20.3483 61.7913 21.9631C61.7913 23.5779 60.491 24.8831 58.8822 24.8831C57.2735 24.8831 55.9731 23.5779 55.9731 21.9631C55.9731 20.3483 57.2735 19.043 58.8822 19.043Z" fill="white" stroke="white" stroke-miterlimit="10"/>
</g>
<defs>
<clipPath id="clip0_0_379">
<rect width="93" height="27" fill="white" transform="matrix(-1 0 0 1 93 0)"/>
</clipPath>
</defs>
</svg>
