<svg width="50" height="26" viewBox="0 0 50 26" fill="none" xmlns="http://www.w3.org/2000/svg">
<g clip-path="url(#clip0_0_130)">
<path d="M16 -1H50V15H16V-1Z" fill="white" stroke="white" stroke-miterlimit="10"/>
<path d="M47.0615 17.5251V21.8777H41.9135C41.9672 19.6899 41.2537 18.3849 40.0491 17.5098L47.0615 17.4577V17.5251Z" fill="white" stroke="white" stroke-miterlimit="10"/>
<path d="M14.3087 17.4254C14.2473 17.4254 14.2013 17.3794 14.2013 17.3179L13.9405 3.17033C13.9405 3.17033 13.9174 3.12427 13.8944 3.12427H4.23507C4.16602 3.12427 4.10464 3.16265 4.07396 3.22406L0.391277 10.9389C0.391277 10.9389 0.38361 10.9619 0.38361 10.9772V20.4499C0.38361 20.6418 0.460331 20.8184 0.598431 20.9489L0.966696 21.2943C1.04342 21.3711 1.15083 21.4095 1.25825 21.4018L2.66994 21.3634L2.73899 20.9028C2.90778 19.7283 3.34509 18.5999 4.10465 17.6864C4.10465 17.6864 4.11232 17.6711 4.11999 17.6711C4.78747 16.8727 4.80282 16.8267 5.66978 16.2586L6.39097 15.9592C6.98173 15.7136 7.24259 15.6829 7.87939 15.6061C8.27834 15.5601 8.60058 15.5524 8.90747 15.6061C9.58262 15.7289 10.2348 15.9592 10.8562 16.2663L11.4086 16.5426C12.3753 17.0646 12.9354 17.7785 13.365 18.7304C13.6949 19.4597 13.8791 20.2427 13.9865 21.0333L14.0632 21.6398H30.4741C30.3974 19.6132 31.648 18.3236 32.6454 17.5022L14.3241 17.4177L14.3087 17.4254ZM12.874 4.36785V11.8447C12.874 11.8447 12.8587 11.8754 12.8433 11.8754H2.27098C2.27098 11.8754 2.24029 11.86 2.24029 11.8447L2.0715 10.5857C2.0715 10.5857 2.0715 10.5704 2.0715 10.5627L5.04066 4.34482C5.04066 4.34482 5.056 4.32179 5.07134 4.32179H12.8357C12.8357 4.32179 12.8663 4.33714 12.8663 4.35249L12.874 4.36785Z" fill="white" stroke="white" stroke-miterlimit="10"/>
<path d="M32.3155 21.6397C32.3155 23.8352 34.0954 25.6161 36.2897 25.6161C38.484 25.6161 40.2639 23.8352 40.2639 21.6397C40.2639 19.4443 38.484 17.6633 36.2897 17.6633C34.0954 17.6633 32.3155 19.4443 32.3155 21.6397ZM36.2897 18.8301C37.8395 18.8301 39.0978 20.0891 39.0978 21.6397C39.0978 23.1903 37.8395 24.4493 36.2897 24.4493C34.7399 24.4493 33.4817 23.1903 33.4817 21.6397C33.4817 20.0891 34.7399 18.8301 36.2897 18.8301Z" fill="white" stroke="white" stroke-miterlimit="10"/>
<path d="M4.1737 21.6397C4.1737 23.8352 5.95366 25.6161 8.14792 25.6161C10.3422 25.6161 12.1221 23.8352 12.1221 21.6397C12.1221 19.4443 10.3422 17.6633 8.14792 17.6633C5.95366 17.6633 4.1737 19.4443 4.1737 21.6397ZM8.14792 18.8301C9.69772 18.8301 10.956 20.0891 10.956 21.6397C10.956 23.1903 9.69772 24.4493 8.14792 24.4493C6.59813 24.4493 5.33988 23.1903 5.33988 21.6397C5.33988 20.0891 6.59813 18.8301 8.14792 18.8301Z" fill="white" stroke="white" stroke-miterlimit="10"/>
</g>
<defs>
<clipPath id="clip0_0_130">
<rect width="50" height="26" fill="white" transform="matrix(-1 0 0 1 50 0)"/>
</clipPath>
</defs>
</svg>
