<svg width="73" height="38" viewBox="0 0 73 38" fill="none" xmlns="http://www.w3.org/2000/svg">
<g clip-path="url(#clip0_0_234)">
<path fill-rule="evenodd" clip-rule="evenodd" d="M31.1259 21.2024C33.2756 21.2723 35.2155 22.1812 36.6485 23.5971C36.7359 23.6845 36.8233 23.7718 36.9107 23.8592V23.7019C37.033 23.6145 37.1554 23.5097 37.2777 23.4223C37.7845 24.1389 38.0816 24.8381 38.1515 25.5023L38.1166 25.5373C38.4661 26.184 38.7283 26.8832 38.8856 27.6173L38.9729 27.4949C39.1128 27.4775 39.2701 27.46 39.4099 27.425C39.4972 28.299 39.4099 29.0506 39.1302 29.6624H39.0778C39.0429 30.4315 38.9205 31.1656 38.6933 31.8648L38.8331 31.7949C38.9729 31.8473 39.1128 31.8997 39.2526 31.9696C38.8856 32.7737 38.4312 33.368 37.8894 33.77H37.837C37.5049 34.2769 37.1204 34.7663 36.6835 35.2033C36.5961 35.2907 36.5087 35.3781 36.4039 35.4655H36.5612C36.6486 35.5879 36.7534 35.7102 36.8408 35.8326C36.1243 36.3395 35.4252 36.6366 34.7611 36.7065L34.7261 36.6716C34.0795 37.0212 33.3804 37.2834 32.6464 37.4407L32.7687 37.5281C32.7862 37.6679 32.8037 37.8252 32.8386 37.965C31.9648 38.0524 31.2133 37.965 30.6016 37.6854V37.6329C29.8327 37.598 29.0986 37.4756 28.3996 37.2484L28.4695 37.3882C28.417 37.5281 28.3646 37.6679 28.3122 37.8077C27.5083 37.4407 26.9141 36.9862 26.5121 36.4443V36.3919C26.0053 36.0598 25.5159 35.6753 25.079 35.2383C24.9916 35.1509 24.9042 35.0635 24.8169 34.9761V35.1334C24.6945 35.2208 24.5722 35.3082 24.4498 35.4131C23.943 34.6964 23.6459 33.9972 23.576 33.333L23.611 33.2981C23.2614 32.6513 22.9993 31.9522 22.842 31.218L22.7546 31.3404C22.6148 31.3579 22.4575 31.3753 22.3177 31.4103C22.2303 30.5363 22.3177 29.7847 22.5973 29.173H22.6497C22.6847 28.4039 22.807 27.6697 23.0342 26.9706L22.8944 27.0405C22.7546 26.988 22.6148 26.9356 22.475 26.8657C22.842 26.0616 23.2964 25.4673 23.8382 25.0653H23.8906C24.2226 24.5584 24.6071 24.069 25.0441 23.632C25.1314 23.5446 25.2188 23.4572 25.3237 23.3698H25.1664C25.079 23.2475 24.9741 23.1251 24.8868 23.0028C25.6033 22.4959 26.3024 22.1987 26.9665 22.1288L27.0014 22.1638C27.6481 21.8142 28.3471 21.5695 29.0812 21.3947L28.9588 21.3073C28.9413 21.1674 28.9239 21.0101 28.8889 20.8703C29.7627 20.7829 30.5142 20.8703 31.1259 21.15V21.2024ZM19.5564 31.2879L23.4886 21.3772H17.6864L13.125 27.1803C14.8377 26.9006 16.5504 26.621 18.2456 26.3413C18.6825 27.9844 19.1195 29.6274 19.5564 31.2705V31.2879ZM17.7039 27.897C18.4379 30.6237 19.1719 33.3505 19.8884 36.0773H0.768973C0.506823 35.0984 0.26215 34.1196 0 33.1408C5.50515 29.7673 11.4647 28.2116 17.7039 27.897ZM42.3634 29.1205H54.9291V31.0258H42.3634V29.1205ZM37.2777 8.37259H35.6524L34.3941 0H15.9038L14.8202 2.86661H16.1834L20.1156 17.5143L20.2205 17.9338L20.605 19.3845H30.5667L30.7939 18.8602C38.3613 20.0313 41.4896 23.4572 43.9363 28.3165H53.2164C56.7991 24.5584 61.3955 21.989 68.0366 21.8142V15.3993H63.5451L59.6304 8.49494L41.175 8.39007L41.8391 6.24011H67.2152L68.0891 8.82705L71.6019 7.63845L70.2911 3.77553L69.8542 2.51702H39.0778L38.6758 3.82797L37.2777 8.35511V8.37259ZM28.5394 12.1132C25.9528 13.092 23.209 13.5465 20.2554 13.2668L17.4767 2.86661H30.1997L28.5394 12.1132ZM66.2016 24.1739C67.9667 24.2438 69.5746 24.9779 70.7455 26.149C70.8154 26.219 70.8853 26.2889 70.9552 26.3763V26.2539C71.0601 26.184 71.1649 26.0966 71.2523 26.0267C71.6718 26.621 71.9164 27.1803 71.9689 27.7397L71.9339 27.7746C72.2135 28.3165 72.4408 28.8758 72.5631 29.4876L72.633 29.3827C72.7553 29.3652 72.8777 29.3477 73 29.3303C73.0699 30.0469 73 30.6762 72.7728 31.1831H72.7204C72.7029 31.8123 72.598 32.4241 72.4058 33.0009L72.5107 32.9485C72.633 33.0009 72.7378 33.0359 72.8427 33.0883C72.5456 33.7525 72.1786 34.242 71.7242 34.5741H71.6718C71.3921 34.9936 71.0776 35.3956 70.728 35.7452C70.6581 35.8151 70.5882 35.885 70.5008 35.9549H70.6232C70.6931 36.0598 70.7805 36.1472 70.8504 36.2521C70.2562 36.6716 69.6969 36.9163 69.1377 36.9687L69.1027 36.9338C68.5784 37.2134 68.0017 37.4232 67.39 37.563L67.4949 37.6329C67.4949 37.7553 67.5298 37.8776 67.5473 38C66.8307 38.0699 66.2016 38 65.7122 37.7728V37.7203C65.0656 37.7029 64.4714 37.598 63.8947 37.4057L63.9471 37.5106C63.8947 37.6329 63.8597 37.7378 63.8073 37.8602C63.1606 37.563 62.6538 37.196 62.3218 36.7415V36.6891C61.9023 36.4269 61.5004 36.0948 61.1508 35.7452C61.0809 35.6753 61.011 35.6053 60.9411 35.5179V35.6403C60.8362 35.7102 60.7489 35.7976 60.644 35.8675C60.2246 35.2732 59.9799 34.7139 59.9275 34.1546L59.9624 34.1196C59.6828 33.5952 59.4556 33.0184 59.3333 32.4066L59.2633 32.5115C59.141 32.529 59.0187 32.5465 58.8963 32.5639C58.8264 31.8473 58.8963 31.218 59.1235 30.7111H59.176C59.1934 30.0819 59.2983 29.4701 59.4905 28.8933L59.3857 28.9457C59.2633 28.8933 59.1585 28.8583 59.0361 28.8059C59.3333 28.1592 59.7003 27.6523 60.1547 27.3201H60.2071C60.4692 26.9006 60.8013 26.4986 61.1508 26.149C61.2207 26.0791 61.2906 26.0092 61.378 25.9393H61.2557C61.1858 25.8344 61.0984 25.747 61.0285 25.6421C61.6227 25.2226 62.1819 24.9779 62.7412 24.9255L62.7761 24.9604C63.3179 24.6808 63.8772 24.471 64.4889 24.3312L64.384 24.2613C64.3665 24.1389 64.3491 24.0166 64.3316 23.8942C65.0481 23.8243 65.6598 23.8942 66.1666 24.1214V24.1739H66.2016ZM68.8406 28.0543C69.5746 28.7884 70.029 29.8197 70.029 30.9384C70.029 32.057 69.5746 33.0883 68.8406 33.8224C68.1065 34.5566 67.0929 35.011 65.9569 35.011C64.8209 35.011 63.8073 34.5566 63.0733 33.8224C62.3392 33.0883 61.8848 32.057 61.8848 30.9384C61.8848 29.8197 62.3392 28.7884 63.0733 28.0543C63.8073 27.3201 64.8384 26.8657 65.9569 26.8657C67.0754 26.8657 68.1065 27.3201 68.8406 28.0543ZM34.3591 25.9043C33.4678 25.0129 32.227 24.4535 30.8463 24.4535C29.4656 24.4535 28.2423 25.0129 27.351 25.9043C26.4597 26.7958 25.9004 28.0368 25.9004 29.4002C25.9004 30.7636 26.4597 32.0046 27.351 32.9135C28.2423 33.805 29.4831 34.3643 30.8463 34.3643C32.2095 34.3643 33.4503 33.805 34.3591 32.9135C35.2504 32.0221 35.8097 30.781 35.8097 29.4002C35.8097 28.0193 35.2504 26.7958 34.3591 25.9043Z" fill="white"/>
</g>
<defs>
<clipPath id="clip0_0_234">
<rect width="73" height="38" fill="white"/>
</clipPath>
</defs>
</svg>
